ISO-10303-21;
HEADER;
/* Generated by software containing ST-Developer
 * from STEP Tools, Inc. (www.steptools.com) 
 */

FILE_DESCRIPTION(
/* description */ (''),
/* implementation_level */ '2;1');

FILE_NAME(
/* name */ 'Bottom left.step',
/* time_stamp */ '2026-03-25T20:03:58-04:00',
/* author */ (''),
/* organization */ (''),
/* preprocessor_version */ 'ST-DEVELOPER v20.1',
/* originating_system */ 'Autodesk Translation Framework v14.24.0.0',
/* authorisation */ '');

FILE_SCHEMA (('AUTOMOTIVE_DESIGN { 1 0 10303 214 3 1 1 }'));
ENDSEC;

DATA;
#10=MECHANICAL_DESIGN_GEOMETRIC_PRESENTATION_REPRESENTATION('',(#13),#1371);
#11=SHAPE_REPRESENTATION_RELATIONSHIP('SRR','None',#1378,#12);
#12=ADVANCED_BREP_SHAPE_REPRESENTATION('',(#14),#1370);
#13=STYLED_ITEM('',(#1387),#14);
#14=MANIFOLD_SOLID_BREP('Bottom left',#691);
#15=FACE_BOUND('',#152,.T.);
#16=FACE_BOUND('',#153,.T.);
#17=FACE_BOUND('',#154,.T.);
#18=FACE_BOUND('',#155,.T.);
#19=FACE_BOUND('',#156,.T.);
#20=FACE_BOUND('',#157,.T.);
#21=FACE_BOUND('',#158,.T.);
#22=FACE_BOUND('',#159,.T.);
#23=FACE_BOUND('',#161,.T.);
#24=FACE_BOUND('',#162,.T.);
#25=FACE_BOUND('',#163,.T.);
#26=FACE_BOUND('',#164,.T.);
#27=FACE_BOUND('',#165,.T.);
#28=FACE_BOUND('',#166,.T.);
#29=FACE_BOUND('',#167,.T.);
#30=FACE_BOUND('',#168,.T.);
#31=B_SPLINE_CURVE_WITH_KNOTS('',3,(#990,#991,#992,#993,#994,#995,#996,
#997,#998,#999,#1000,#1001,#1002),.UNSPECIFIED.,.F.,.F.,(4,3,3,3,4),(3.45164082176507E-5,
0.70684845590965,0.971693730336574,1.00002272748532,1.00007954556487),
 .UNSPECIFIED.);
#32=B_SPLINE_CURVE_WITH_KNOTS('',3,(#1005,#1006,#1007,#1008,#1009,#1010,
#1011,#1012,#1013,#1014,#1015,#1016,#1017),.UNSPECIFIED.,.F.,.F.,(4,3,3,
3,4),(3.45164082176507E-5,0.70684845590965,0.971693730336574,1.00002272748532,
1.00007954556487),.UNSPECIFIED.);
#33=B_SPLINE_CURVE_WITH_KNOTS('',3,(#1045,#1046,#1047,#1048,#1049,#1050,
#1051,#1052,#1053,#1054),.UNSPECIFIED.,.F.,.F.,(4,3,3,4),(-3.39804640284874E-5,
-1.35928064615985E-5,0.0349254516563535,0.999988289559876),
 .UNSPECIFIED.);
#34=B_SPLINE_CURVE_WITH_KNOTS('',3,(#1057,#1058,#1059,#1060,#1061,#1062,
#1063,#1064,#1065,#1066),.UNSPECIFIED.,.F.,.F.,(4,3,3,4),(-3.39804640284874E-5,
-1.35928064615985E-5,0.0349254516563535,0.999988289559876),
 .UNSPECIFIED.);
#35=B_SPLINE_CURVE_WITH_KNOTS('',3,(#1094,#1095,#1096,#1097),
 .UNSPECIFIED.,.F.,.F.,(4,4),(0.,1.),.UNSPECIFIED.);
#36=B_SPLINE_CURVE_WITH_KNOTS('',3,(#1100,#1101,#1102,#1103),
 .UNSPECIFIED.,.F.,.F.,(4,4),(0.,1.),.UNSPECIFIED.);
#37=B_SPLINE_CURVE_WITH_KNOTS('',3,(#1113,#1114,#1115,#1116),
 .UNSPECIFIED.,.F.,.F.,(4,4),(0.0377846264041371,1.),.UNSPECIFIED.);
#38=B_SPLINE_CURVE_WITH_KNOTS('',3,(#1119,#1120,#1121,#1122),
 .UNSPECIFIED.,.F.,.F.,(4,4),(0.0377846264041371,1.),.UNSPECIFIED.);
#39=B_SPLINE_CURVE_WITH_KNOTS('',3,(#1162,#1163,#1164,#1165,#1166,#1167,
#1168,#1169,#1170,#1171,#1172,#1173,#1174,#1175,#1176,#1177),
 .UNSPECIFIED.,.F.,.F.,(4,3,3,3,3,4),(3.69928870178328E-5,0.519267089071726,
0.846747249654439,0.957720444780622,1.00002065074662,1.00007227850429),
 .UNSPECIFIED.);
#40=B_SPLINE_CURVE_WITH_KNOTS('',3,(#1180,#1181,#1182,#1183,#1184,#1185,
#1186,#1187,#1188,#1189,#1190,#1191,#1192,#1193,#1194,#1195),
 .UNSPECIFIED.,.F.,.F.,(4,3,3,3,3,4),(3.69928870178328E-5,0.519267089071726,
0.846747249654439,0.957720444780622,1.00002065074662,1.00007227850429),
 .UNSPECIFIED.);
#41=B_SPLINE_CURVE_WITH_KNOTS('',3,(#1217,#1218,#1219,#1220,#1221,#1222,
#1223),.UNSPECIFIED.,.F.,.F.,(4,3,4),(-2.98902015304013E-5,0.,0.999993677524722),
 .UNSPECIFIED.);
#42=B_SPLINE_CURVE_WITH_KNOTS('',3,(#1226,#1227,#1228,#1229,#1230,#1231,
#1232),.UNSPECIFIED.,.F.,.F.,(4,3,4),(-2.98902015304013E-5,0.,0.999993677524722),
 .UNSPECIFIED.);
#43=B_SPLINE_CURVE_WITH_KNOTS('',3,(#1248,#1249,#1250,#1251),
 .UNSPECIFIED.,.F.,.F.,(4,4),(1.01969294412114E-6,1.00000000020105),
 .UNSPECIFIED.);
#44=B_SPLINE_CURVE_WITH_KNOTS('',3,(#1254,#1255,#1256,#1257),
 .UNSPECIFIED.,.F.,.F.,(4,4),(1.01969294412114E-6,1.00000000020105),
 .UNSPECIFIED.);
#45=B_SPLINE_CURVE_WITH_KNOTS('',3,(#1279,#1280,#1281,#1282,#1283,#1284,
#1285),.UNSPECIFIED.,.F.,.F.,(4,3,4),(4.99883453368731E-6,0.775053181841705,
0.999999999967033),.UNSPECIFIED.);
#46=B_SPLINE_CURVE_WITH_KNOTS('',3,(#1288,#1289,#1290,#1291,#1292,#1293,
#1294),.UNSPECIFIED.,.F.,.F.,(4,3,4),(4.99883453368731E-6,0.775053181841705,
0.999999999967033),.UNSPECIFIED.);
#47=B_SPLINE_CURVE_WITH_KNOTS('',3,(#1310,#1311,#1312,#1313),
 .UNSPECIFIED.,.F.,.F.,(4,4),(2.03959044917026E-6,1.),.UNSPECIFIED.);
#48=B_SPLINE_CURVE_WITH_KNOTS('',3,(#1316,#1317,#1318,#1319),
 .UNSPECIFIED.,.F.,.F.,(4,4),(2.03959044917026E-6,1.),.UNSPECIFIED.);
#49=B_SPLINE_CURVE_WITH_KNOTS('',3,(#1346,#1347,#1348,#1349,#1350,#1351,
#1352,#1353,#1354,#1355),.UNSPECIFIED.,.F.,.F.,(4,3,3,4),(-0.000117248709927067,
-3.3501839221483E-5,0.102089919841851,0.99998092992167),.UNSPECIFIED.);
#50=B_SPLINE_CURVE_WITH_KNOTS('',3,(#1356,#1357,#1358,#1359,#1360,#1361,
#1362,#1363,#1364,#1365),.UNSPECIFIED.,.F.,.F.,(4,3,3,4),(-0.000117248709927067,
-3.34993242742032E-5,0.102089922099967,0.999980929921669),.UNSPECIFIED.);
#51=B_SPLINE_SURFACE_WITH_KNOTS('',3,1,((#963,#964),(#965,#966),(#967,#968),
(#969,#970),(#971,#972),(#973,#974),(#975,#976),(#977,#978),(#979,#980),
(#981,#982),(#983,#984),(#985,#986),(#987,#988)),.UNSPECIFIED.,.F.,.F.,
 .F.,(4,3,3,3,4),(2,2),(3.45164082176507E-5,0.70684845590965,0.971693730336574,
1.00002272748532,1.00007954556487),(0.,0.16),.UNSPECIFIED.);
#52=B_SPLINE_SURFACE_WITH_KNOTS('',3,1,((#1024,#1025),(#1026,#1027),(#1028,
#1029),(#1030,#1031),(#1032,#1033),(#1034,#1035),(#1036,#1037),(#1038,#1039),
(#1040,#1041),(#1042,#1043)),.UNSPECIFIED.,.F.,.F.,.F.,(4,3,3,4),(2,2),
(-3.39804640284874E-5,-1.35928064615985E-5,0.0349254516563535,0.999988289559876),
(0.,0.16),.UNSPECIFIED.);
#53=B_SPLINE_SURFACE_WITH_KNOTS('',3,1,((#1085,#1086),(#1087,#1088),(#1089,
#1090),(#1091,#1092)),.UNSPECIFIED.,.F.,.F.,.F.,(4,4),(2,2),(0.,1.),(0.,
0.16),.UNSPECIFIED.);
#54=B_SPLINE_SURFACE_WITH_KNOTS('',3,1,((#1104,#1105),(#1106,#1107),(#1108,
#1109),(#1110,#1111)),.UNSPECIFIED.,.F.,.F.,.F.,(4,4),(2,2),(0.0377846264041371,
1.),(0.,0.16),.UNSPECIFIED.);
#55=B_SPLINE_SURFACE_WITH_KNOTS('',3,1,((#1129,#1130),(#1131,#1132),(#1133,
#1134),(#1135,#1136),(#1137,#1138),(#1139,#1140),(#1141,#1142),(#1143,#1144),
(#1145,#1146),(#1147,#1148),(#1149,#1150),(#1151,#1152),(#1153,#1154),(#1155,
#1156),(#1157,#1158),(#1159,#1160)),.UNSPECIFIED.,.F.,.F.,.F.,(4,3,3,3,
3,4),(2,2),(3.69928870178328E-5,0.519267089071726,0.846747249654439,0.957720444780622,
1.00002065074662,1.00007227850429),(0.,0.16),.UNSPECIFIED.);
#56=B_SPLINE_SURFACE_WITH_KNOTS('',3,1,((#1202,#1203),(#1204,#1205),(#1206,
#1207),(#1208,#1209),(#1210,#1211),(#1212,#1213),(#1214,#1215)),
 .UNSPECIFIED.,.F.,.F.,.F.,(4,3,4),(2,2),(-2.98902015304013E-5,0.,0.999993677524722),
(0.,0.16),.UNSPECIFIED.);
#57=B_SPLINE_SURFACE_WITH_KNOTS('',3,1,((#1239,#1240),(#1241,#1242),(#1243,
#1244),(#1245,#1246)),.UNSPECIFIED.,.F.,.F.,.F.,(4,4),(2,2),(1.01969294412114E-6,
1.00000000020105),(0.,0.16),.UNSPECIFIED.);
#58=B_SPLINE_SURFACE_WITH_KNOTS('',3,1,((#1264,#1265),(#1266,#1267),(#1268,
#1269),(#1270,#1271),(#1272,#1273),(#1274,#1275),(#1276,#1277)),
 .UNSPECIFIED.,.F.,.F.,.F.,(4,3,4),(2,2),(4.99883453368731E-6,0.775053181843456,
0.999999999967033),(0.,0.16),.UNSPECIFIED.);
#59=B_SPLINE_SURFACE_WITH_KNOTS('',3,1,((#1301,#1302),(#1303,#1304),(#1305,
#1306),(#1307,#1308)),.UNSPECIFIED.,.F.,.F.,.F.,(4,4),(2,2),(2.03959044917026E-6,
1.),(0.,0.16),.UNSPECIFIED.);
#60=B_SPLINE_SURFACE_WITH_KNOTS('',3,1,((#1326,#1327),(#1328,#1329),(#1330,
#1331),(#1332,#1333),(#1334,#1335),(#1336,#1337),(#1338,#1339),(#1340,#1341),
(#1342,#1343),(#1344,#1345)),.UNSPECIFIED.,.F.,.F.,.F.,(4,3,3,4),(2,2),
(-0.000117248709927067,-3.34993242742032E-5,0.102089922099967,0.999980929921669),
(0.,0.16),.UNSPECIFIED.);
#61=CIRCLE('',#710,1.25);
#62=CIRCLE('',#711,1.25);
#63=CIRCLE('',#713,1.25);
#64=CIRCLE('',#714,1.25);
#65=CIRCLE('',#716,1.25);
#66=CIRCLE('',#717,1.25);
#67=CIRCLE('',#719,1.25);
#68=CIRCLE('',#720,1.25);
#69=CIRCLE('',#722,1.25);
#70=CIRCLE('',#723,1.25);
#71=CIRCLE('',#725,1.25);
#72=CIRCLE('',#726,1.25);
#73=CIRCLE('',#728,1.24999999999999);
#74=CIRCLE('',#729,1.24999999999999);
#75=CIRCLE('',#735,3.5);
#76=CIRCLE('',#736,3.5);
#77=CYLINDRICAL_SURFACE('',#709,1.25);
#78=CYLINDRICAL_SURFACE('',#712,1.25);
#79=CYLINDRICAL_SURFACE('',#715,1.25);
#80=CYLINDRICAL_SURFACE('',#718,1.25);
#81=CYLINDRICAL_SURFACE('',#721,1.25);
#82=CYLINDRICAL_SURFACE('',#724,1.25);
#83=CYLINDRICAL_SURFACE('',#727,1.24999999999999);
#84=CYLINDRICAL_SURFACE('',#734,3.5);
#85=FACE_OUTER_BOUND('',#119,.T.);
#86=FACE_OUTER_BOUND('',#120,.T.);
#87=FACE_OUTER_BOUND('',#121,.T.);
#88=FACE_OUTER_BOUND('',#122,.T.);
#89=FACE_OUTER_BOUND('',#123,.T.);
#90=FACE_OUTER_BOUND('',#124,.T.);
#91=FACE_OUTER_BOUND('',#125,.T.);
#92=FACE_OUTER_BOUND('',#126,.T.);
#93=FACE_OUTER_BOUND('',#127,.T.);
#94=FACE_OUTER_BOUND('',#128,.T.);
#95=FACE_OUTER_BOUND('',#129,.T.);
#96=FACE_OUTER_BOUND('',#130,.T.);
#97=FACE_OUTER_BOUND('',#131,.T.);
#98=FACE_OUTER_BOUND('',#132,.T.);
#99=FACE_OUTER_BOUND('',#133,.T.);
#100=FACE_OUTER_BOUND('',#134,.T.);
#101=FACE_OUTER_BOUND('',#135,.T.);
#102=FACE_OUTER_BOUND('',#136,.T.);
#103=FACE_OUTER_BOUND('',#137,.T.);
#104=FACE_OUTER_BOUND('',#138,.T.);
#105=FACE_OUTER_BOUND('',#139,.T.);
#106=FACE_OUTER_BOUND('',#140,.T.);
#107=FACE_OUTER_BOUND('',#141,.T.);
#108=FACE_OUTER_BOUND('',#142,.T.);
#109=FACE_OUTER_BOUND('',#143,.T.);
#110=FACE_OUTER_BOUND('',#144,.T.);
#111=FACE_OUTER_BOUND('',#145,.T.);
#112=FACE_OUTER_BOUND('',#146,.T.);
#113=FACE_OUTER_BOUND('',#147,.T.);
#114=FACE_OUTER_BOUND('',#148,.T.);
#115=FACE_OUTER_BOUND('',#149,.T.);
#116=FACE_OUTER_BOUND('',#150,.T.);
#117=FACE_OUTER_BOUND('',#151,.T.);
#118=FACE_OUTER_BOUND('',#160,.T.);
#119=EDGE_LOOP('',(#449,#450,#451,#452));
#120=EDGE_LOOP('',(#453,#454,#455,#456));
#121=EDGE_LOOP('',(#457,#458,#459,#460));
#122=EDGE_LOOP('',(#461,#462,#463,#464));
#123=EDGE_LOOP('',(#465,#466,#467,#468));
#124=EDGE_LOOP('',(#469,#470,#471,#472));
#125=EDGE_LOOP('',(#473,#474,#475,#476));
#126=EDGE_LOOP('',(#477,#478,#479,#480));
#127=EDGE_LOOP('',(#481,#482,#483,#484));
#128=EDGE_LOOP('',(#485,#486,#487,#488));
#129=EDGE_LOOP('',(#489,#490,#491,#492));
#130=EDGE_LOOP('',(#493,#494,#495,#496));
#131=EDGE_LOOP('',(#497,#498,#499,#500));
#132=EDGE_LOOP('',(#501,#502,#503,#504));
#133=EDGE_LOOP('',(#505,#506,#507,#508));
#134=EDGE_LOOP('',(#509,#510,#511,#512));
#135=EDGE_LOOP('',(#513,#514,#515,#516));
#136=EDGE_LOOP('',(#517,#518,#519,#520));
#137=EDGE_LOOP('',(#521,#522,#523,#524));
#138=EDGE_LOOP('',(#525,#526,#527,#528));
#139=EDGE_LOOP('',(#529,#530,#531,#532));
#140=EDGE_LOOP('',(#533,#534,#535,#536));
#141=EDGE_LOOP('',(#537,#538,#539,#540));
#142=EDGE_LOOP('',(#541,#542,#543,#544));
#143=EDGE_LOOP('',(#545,#546,#547,#548));
#144=EDGE_LOOP('',(#549,#550,#551,#552));
#145=EDGE_LOOP('',(#553,#554,#555,#556));
#146=EDGE_LOOP('',(#557,#558,#559,#560));
#147=EDGE_LOOP('',(#561,#562,#563,#564));
#148=EDGE_LOOP('',(#565,#566,#567,#568));
#149=EDGE_LOOP('',(#569,#570,#571,#572));
#150=EDGE_LOOP('',(#573,#574,#575,#576));
#151=EDGE_LOOP('',(#577,#578,#579,#580,#581,#582,#583,#584,#585,#586,#587,
#588,#589,#590,#591,#592,#593,#594,#595,#596,#597));
#152=EDGE_LOOP('',(#598,#599,#600,#601));
#153=EDGE_LOOP('',(#602));
#154=EDGE_LOOP('',(#603));
#155=EDGE_LOOP('',(#604));
#156=EDGE_LOOP('',(#605));
#157=EDGE_LOOP('',(#606));
#158=EDGE_LOOP('',(#607));
#159=EDGE_LOOP('',(#608));
#160=EDGE_LOOP('',(#609,#610,#611,#612,#613,#614,#615,#616,#617,#618,#619,
#620,#621,#622,#623,#624,#625,#626,#627,#628,#629));
#161=EDGE_LOOP('',(#630,#631,#632,#633));
#162=EDGE_LOOP('',(#634));
#163=EDGE_LOOP('',(#635));
#164=EDGE_LOOP('',(#636));
#165=EDGE_LOOP('',(#637));
#166=EDGE_LOOP('',(#638));
#167=EDGE_LOOP('',(#639));
#168=EDGE_LOOP('',(#640));
#169=LINE('',#891,#229);
#170=LINE('',#893,#230);
#171=LINE('',#895,#231);
#172=LINE('',#896,#232);
#173=LINE('',#899,#233);
#174=LINE('',#901,#234);
#175=LINE('',#902,#235);
#176=LINE('',#905,#236);
#177=LINE('',#907,#237);
#178=LINE('',#908,#238);
#179=LINE('',#910,#239);
#180=LINE('',#911,#240);
#181=LINE('',#916,#241);
#182=LINE('',#922,#242);
#183=LINE('',#928,#243);
#184=LINE('',#934,#244);
#185=LINE('',#940,#245);
#186=LINE('',#946,#246);
#187=LINE('',#952,#247);
#188=LINE('',#957,#248);
#189=LINE('',#959,#249);
#190=LINE('',#961,#250);
#191=LINE('',#962,#251);
#192=LINE('',#1004,#252);
#193=LINE('',#1020,#253);
#194=LINE('',#1022,#254);
#195=LINE('',#1023,#255);
#196=LINE('',#1056,#256);
#197=LINE('',#1069,#257);
#198=LINE('',#1071,#258);
#199=LINE('',#1072,#259);
#200=LINE('',#1075,#260);
#201=LINE('',#1077,#261);
#202=LINE('',#1078,#262);
#203=LINE('',#1083,#263);
#204=LINE('',#1099,#264);
#205=LINE('',#1118,#265);
#206=LINE('',#1125,#266);
#207=LINE('',#1127,#267);
#208=LINE('',#1128,#268);
#209=LINE('',#1179,#269);
#210=LINE('',#1198,#270);
#211=LINE('',#1200,#271);
#212=LINE('',#1201,#272);
#213=LINE('',#1225,#273);
#214=LINE('',#1235,#274);
#215=LINE('',#1237,#275);
#216=LINE('',#1238,#276);
#217=LINE('',#1253,#277);
#218=LINE('',#1260,#278);
#219=LINE('',#1262,#279);
#220=LINE('',#1263,#280);
#221=LINE('',#1287,#281);
#222=LINE('',#1297,#282);
#223=LINE('',#1299,#283);
#224=LINE('',#1300,#284);
#225=LINE('',#1315,#285);
#226=LINE('',#1322,#286);
#227=LINE('',#1324,#287);
#228=LINE('',#1325,#288);
#229=VECTOR('',#749,10.);
#230=VECTOR('',#750,10.);
#231=VECTOR('',#751,10.);
#232=VECTOR('',#752,10.);
#233=VECTOR('',#755,10.);
#234=VECTOR('',#756,10.);
#235=VECTOR('',#757,10.);
#236=VECTOR('',#760,10.);
#237=VECTOR('',#761,10.);
#238=VECTOR('',#762,10.);
#239=VECTOR('',#765,10.);
#240=VECTOR('',#766,10.);
#241=VECTOR('',#771,1.25);
#242=VECTOR('',#778,1.25);
#243=VECTOR('',#785,1.25);
#244=VECTOR('',#792,1.25);
#245=VECTOR('',#799,1.25);
#246=VECTOR('',#806,1.25);
#247=VECTOR('',#813,1.24999999999999);
#248=VECTOR('',#818,10.);
#249=VECTOR('',#819,10.);
#250=VECTOR('',#820,10.);
#251=VECTOR('',#821,10.);
#252=VECTOR('',#822,10.);
#253=VECTOR('',#825,10.);
#254=VECTOR('',#826,10.);
#255=VECTOR('',#827,10.);
#256=VECTOR('',#828,10.);
#257=VECTOR('',#831,10.);
#258=VECTOR('',#832,10.);
#259=VECTOR('',#833,10.);
#260=VECTOR('',#836,10.);
#261=VECTOR('',#837,10.);
#262=VECTOR('',#838,10.);
#263=VECTOR('',#843,10.);
#264=VECTOR('',#846,10.);
#265=VECTOR('',#847,10.);
#266=VECTOR('',#850,10.);
#267=VECTOR('',#851,10.);
#268=VECTOR('',#852,10.);
#269=VECTOR('',#853,10.);
#270=VECTOR('',#856,10.);
#271=VECTOR('',#857,10.);
#272=VECTOR('',#858,10.);
#273=VECTOR('',#859,10.);
#274=VECTOR('',#862,10.);
#275=VECTOR('',#863,10.);
#276=VECTOR('',#864,10.);
#277=VECTOR('',#865,10.);
#278=VECTOR('',#868,10.);
#279=VECTOR('',#869,10.);
#280=VECTOR('',#870,10.);
#281=VECTOR('',#871,10.);
#282=VECTOR('',#874,10.);
#283=VECTOR('',#875,10.);
#284=VECTOR('',#876,10.);
#285=VECTOR('',#877,10.);
#286=VECTOR('',#880,10.);
#287=VECTOR('',#881,10.);
#288=VECTOR('',#882,10.);
#289=VERTEX_POINT('',#889);
#290=VERTEX_POINT('',#890);
#291=VERTEX_POINT('',#892);
#292=VERTEX_POINT('',#894);
#293=VERTEX_POINT('',#898);
#294=VERTEX_POINT('',#900);
#295=VERTEX_POINT('',#904);
#296=VERTEX_POINT('',#906);
#297=VERTEX_POINT('',#913);
#298=VERTEX_POINT('',#915);
#299=VERTEX_POINT('',#919);
#300=VERTEX_POINT('',#921);
#301=VERTEX_POINT('',#925);
#302=VERTEX_POINT('',#927);
#303=VERTEX_POINT('',#931);
#304=VERTEX_POINT('',#933);
#305=VERTEX_POINT('',#937);
#306=VERTEX_POINT('',#939);
#307=VERTEX_POINT('',#943);
#308=VERTEX_POINT('',#945);
#309=VERTEX_POINT('',#949);
#310=VERTEX_POINT('',#951);
#311=VERTEX_POINT('',#955);
#312=VERTEX_POINT('',#956);
#313=VERTEX_POINT('',#958);
#314=VERTEX_POINT('',#960);
#315=VERTEX_POINT('',#989);
#316=VERTEX_POINT('',#1003);
#317=VERTEX_POINT('',#1019);
#318=VERTEX_POINT('',#1021);
#319=VERTEX_POINT('',#1044);
#320=VERTEX_POINT('',#1055);
#321=VERTEX_POINT('',#1068);
#322=VERTEX_POINT('',#1070);
#323=VERTEX_POINT('',#1074);
#324=VERTEX_POINT('',#1076);
#325=VERTEX_POINT('',#1080);
#326=VERTEX_POINT('',#1082);
#327=VERTEX_POINT('',#1093);
#328=VERTEX_POINT('',#1098);
#329=VERTEX_POINT('',#1112);
#330=VERTEX_POINT('',#1117);
#331=VERTEX_POINT('',#1124);
#332=VERTEX_POINT('',#1126);
#333=VERTEX_POINT('',#1161);
#334=VERTEX_POINT('',#1178);
#335=VERTEX_POINT('',#1197);
#336=VERTEX_POINT('',#1199);
#337=VERTEX_POINT('',#1216);
#338=VERTEX_POINT('',#1224);
#339=VERTEX_POINT('',#1234);
#340=VERTEX_POINT('',#1236);
#341=VERTEX_POINT('',#1247);
#342=VERTEX_POINT('',#1252);
#343=VERTEX_POINT('',#1259);
#344=VERTEX_POINT('',#1261);
#345=VERTEX_POINT('',#1278);
#346=VERTEX_POINT('',#1286);
#347=VERTEX_POINT('',#1296);
#348=VERTEX_POINT('',#1298);
#349=VERTEX_POINT('',#1309);
#350=VERTEX_POINT('',#1314);
#351=VERTEX_POINT('',#1321);
#352=VERTEX_POINT('',#1323);
#353=EDGE_CURVE('',#289,#290,#169,.T.);
#354=EDGE_CURVE('',#291,#289,#170,.T.);
#355=EDGE_CURVE('',#292,#291,#171,.T.);
#356=EDGE_CURVE('',#292,#290,#172,.T.);
#357=EDGE_CURVE('',#290,#293,#173,.T.);
#358=EDGE_CURVE('',#294,#292,#174,.T.);
#359=EDGE_CURVE('',#294,#293,#175,.T.);
#360=EDGE_CURVE('',#293,#295,#176,.T.);
#361=EDGE_CURVE('',#296,#294,#177,.T.);
#362=EDGE_CURVE('',#296,#295,#178,.T.);
#363=EDGE_CURVE('',#295,#289,#179,.T.);
#364=EDGE_CURVE('',#291,#296,#180,.T.);
#365=EDGE_CURVE('',#297,#297,#61,.T.);
#366=EDGE_CURVE('',#297,#298,#181,.T.);
#367=EDGE_CURVE('',#298,#298,#62,.T.);
#368=EDGE_CURVE('',#299,#299,#63,.T.);
#369=EDGE_CURVE('',#299,#300,#182,.T.);
#370=EDGE_CURVE('',#300,#300,#64,.T.);
#371=EDGE_CURVE('',#301,#301,#65,.T.);
#372=EDGE_CURVE('',#301,#302,#183,.T.);
#373=EDGE_CURVE('',#302,#302,#66,.T.);
#374=EDGE_CURVE('',#303,#303,#67,.T.);
#375=EDGE_CURVE('',#303,#304,#184,.T.);
#376=EDGE_CURVE('',#304,#304,#68,.T.);
#377=EDGE_CURVE('',#305,#305,#69,.T.);
#378=EDGE_CURVE('',#305,#306,#185,.T.);
#379=EDGE_CURVE('',#306,#306,#70,.T.);
#380=EDGE_CURVE('',#307,#307,#71,.T.);
#381=EDGE_CURVE('',#307,#308,#186,.T.);
#382=EDGE_CURVE('',#308,#308,#72,.T.);
#383=EDGE_CURVE('',#309,#309,#73,.T.);
#384=EDGE_CURVE('',#309,#310,#187,.T.);
#385=EDGE_CURVE('',#310,#310,#74,.T.);
#386=EDGE_CURVE('',#311,#312,#188,.T.);
#387=EDGE_CURVE('',#312,#313,#189,.T.);
#388=EDGE_CURVE('',#313,#314,#190,.T.);
#389=EDGE_CURVE('',#311,#314,#191,.T.);
#390=EDGE_CURVE('',#315,#312,#31,.T.);
#391=EDGE_CURVE('',#315,#316,#192,.T.);
#392=EDGE_CURVE('',#316,#313,#32,.T.);
#393=EDGE_CURVE('',#315,#317,#193,.T.);
#394=EDGE_CURVE('',#317,#318,#194,.T.);
#395=EDGE_CURVE('',#318,#316,#195,.T.);
#396=EDGE_CURVE('',#319,#317,#33,.T.);
#397=EDGE_CURVE('',#319,#320,#196,.T.);
#398=EDGE_CURVE('',#320,#318,#34,.T.);
#399=EDGE_CURVE('',#319,#321,#197,.T.);
#400=EDGE_CURVE('',#321,#322,#198,.T.);
#401=EDGE_CURVE('',#322,#320,#199,.T.);
#402=EDGE_CURVE('',#321,#323,#200,.T.);
#403=EDGE_CURVE('',#323,#324,#201,.T.);
#404=EDGE_CURVE('',#324,#322,#202,.T.);
#405=EDGE_CURVE('',#325,#323,#75,.T.);
#406=EDGE_CURVE('',#325,#326,#203,.T.);
#407=EDGE_CURVE('',#326,#324,#76,.T.);
#408=EDGE_CURVE('',#327,#325,#35,.T.);
#409=EDGE_CURVE('',#327,#328,#204,.T.);
#410=EDGE_CURVE('',#328,#326,#36,.T.);
#411=EDGE_CURVE('',#329,#327,#37,.T.);
#412=EDGE_CURVE('',#329,#330,#205,.T.);
#413=EDGE_CURVE('',#330,#328,#38,.T.);
#414=EDGE_CURVE('',#329,#331,#206,.T.);
#415=EDGE_CURVE('',#331,#332,#207,.T.);
#416=EDGE_CURVE('',#332,#330,#208,.T.);
#417=EDGE_CURVE('',#333,#331,#39,.T.);
#418=EDGE_CURVE('',#333,#334,#209,.T.);
#419=EDGE_CURVE('',#334,#332,#40,.T.);
#420=EDGE_CURVE('',#333,#335,#210,.T.);
#421=EDGE_CURVE('',#335,#336,#211,.T.);
#422=EDGE_CURVE('',#336,#334,#212,.T.);
#423=EDGE_CURVE('',#337,#335,#41,.T.);
#424=EDGE_CURVE('',#337,#338,#213,.T.);
#425=EDGE_CURVE('',#338,#336,#42,.T.);
#426=EDGE_CURVE('',#337,#339,#214,.T.);
#427=EDGE_CURVE('',#339,#340,#215,.T.);
#428=EDGE_CURVE('',#340,#338,#216,.T.);
#429=EDGE_CURVE('',#341,#339,#43,.T.);
#430=EDGE_CURVE('',#341,#342,#217,.T.);
#431=EDGE_CURVE('',#342,#340,#44,.T.);
#432=EDGE_CURVE('',#341,#343,#218,.T.);
#433=EDGE_CURVE('',#343,#344,#219,.T.);
#434=EDGE_CURVE('',#344,#342,#220,.T.);
#435=EDGE_CURVE('',#345,#343,#45,.T.);
#436=EDGE_CURVE('',#345,#346,#221,.T.);
#437=EDGE_CURVE('',#346,#344,#46,.T.);
#438=EDGE_CURVE('',#345,#347,#222,.T.);
#439=EDGE_CURVE('',#347,#348,#223,.T.);
#440=EDGE_CURVE('',#348,#346,#224,.T.);
#441=EDGE_CURVE('',#349,#347,#47,.T.);
#442=EDGE_CURVE('',#349,#350,#225,.T.);
#443=EDGE_CURVE('',#350,#348,#48,.T.);
#444=EDGE_CURVE('',#349,#351,#226,.T.);
#445=EDGE_CURVE('',#351,#352,#227,.T.);
#446=EDGE_CURVE('',#352,#350,#228,.T.);
#447=EDGE_CURVE('',#311,#351,#49,.T.);
#448=EDGE_CURVE('',#314,#352,#50,.T.);
#449=ORIENTED_EDGE('',*,*,#353,.F.);
#450=ORIENTED_EDGE('',*,*,#354,.F.);
#451=ORIENTED_EDGE('',*,*,#355,.F.);
#452=ORIENTED_EDGE('',*,*,#356,.T.);
#453=ORIENTED_EDGE('',*,*,#357,.F.);
#454=ORIENTED_EDGE('',*,*,#356,.F.);
#455=ORIENTED_EDGE('',*,*,#358,.F.);
#456=ORIENTED_EDGE('',*,*,#359,.T.);
#457=ORIENTED_EDGE('',*,*,#360,.F.);
#458=ORIENTED_EDGE('',*,*,#359,.F.);
#459=ORIENTED_EDGE('',*,*,#361,.F.);
#460=ORIENTED_EDGE('',*,*,#362,.T.);
#461=ORIENTED_EDGE('',*,*,#363,.F.);
#462=ORIENTED_EDGE('',*,*,#362,.F.);
#463=ORIENTED_EDGE('',*,*,#364,.F.);
#464=ORIENTED_EDGE('',*,*,#354,.T.);
#465=ORIENTED_EDGE('',*,*,#365,.T.);
#466=ORIENTED_EDGE('',*,*,#366,.T.);
#467=ORIENTED_EDGE('',*,*,#367,.F.);
#468=ORIENTED_EDGE('',*,*,#366,.F.);
#469=ORIENTED_EDGE('',*,*,#368,.T.);
#470=ORIENTED_EDGE('',*,*,#369,.T.);
#471=ORIENTED_EDGE('',*,*,#370,.F.);
#472=ORIENTED_EDGE('',*,*,#369,.F.);
#473=ORIENTED_EDGE('',*,*,#371,.T.);
#474=ORIENTED_EDGE('',*,*,#372,.T.);
#475=ORIENTED_EDGE('',*,*,#373,.F.);
#476=ORIENTED_EDGE('',*,*,#372,.F.);
#477=ORIENTED_EDGE('',*,*,#374,.T.);
#478=ORIENTED_EDGE('',*,*,#375,.T.);
#479=ORIENTED_EDGE('',*,*,#376,.F.);
#480=ORIENTED_EDGE('',*,*,#375,.F.);
#481=ORIENTED_EDGE('',*,*,#377,.T.);
#482=ORIENTED_EDGE('',*,*,#378,.T.);
#483=ORIENTED_EDGE('',*,*,#379,.F.);
#484=ORIENTED_EDGE('',*,*,#378,.F.);
#485=ORIENTED_EDGE('',*,*,#380,.T.);
#486=ORIENTED_EDGE('',*,*,#381,.T.);
#487=ORIENTED_EDGE('',*,*,#382,.F.);
#488=ORIENTED_EDGE('',*,*,#381,.F.);
#489=ORIENTED_EDGE('',*,*,#383,.T.);
#490=ORIENTED_EDGE('',*,*,#384,.T.);
#491=ORIENTED_EDGE('',*,*,#385,.F.);
#492=ORIENTED_EDGE('',*,*,#384,.F.);
#493=ORIENTED_EDGE('',*,*,#386,.T.);
#494=ORIENTED_EDGE('',*,*,#387,.T.);
#495=ORIENTED_EDGE('',*,*,#388,.T.);
#496=ORIENTED_EDGE('',*,*,#389,.F.);
#497=ORIENTED_EDGE('',*,*,#390,.F.);
#498=ORIENTED_EDGE('',*,*,#391,.T.);
#499=ORIENTED_EDGE('',*,*,#392,.T.);
#500=ORIENTED_EDGE('',*,*,#387,.F.);
#501=ORIENTED_EDGE('',*,*,#393,.T.);
#502=ORIENTED_EDGE('',*,*,#394,.T.);
#503=ORIENTED_EDGE('',*,*,#395,.T.);
#504=ORIENTED_EDGE('',*,*,#391,.F.);
#505=ORIENTED_EDGE('',*,*,#396,.F.);
#506=ORIENTED_EDGE('',*,*,#397,.T.);
#507=ORIENTED_EDGE('',*,*,#398,.T.);
#508=ORIENTED_EDGE('',*,*,#394,.F.);
#509=ORIENTED_EDGE('',*,*,#399,.T.);
#510=ORIENTED_EDGE('',*,*,#400,.T.);
#511=ORIENTED_EDGE('',*,*,#401,.T.);
#512=ORIENTED_EDGE('',*,*,#397,.F.);
#513=ORIENTED_EDGE('',*,*,#402,.T.);
#514=ORIENTED_EDGE('',*,*,#403,.T.);
#515=ORIENTED_EDGE('',*,*,#404,.T.);
#516=ORIENTED_EDGE('',*,*,#400,.F.);
#517=ORIENTED_EDGE('',*,*,#405,.F.);
#518=ORIENTED_EDGE('',*,*,#406,.T.);
#519=ORIENTED_EDGE('',*,*,#407,.T.);
#520=ORIENTED_EDGE('',*,*,#403,.F.);
#521=ORIENTED_EDGE('',*,*,#408,.F.);
#522=ORIENTED_EDGE('',*,*,#409,.T.);
#523=ORIENTED_EDGE('',*,*,#410,.T.);
#524=ORIENTED_EDGE('',*,*,#406,.F.);
#525=ORIENTED_EDGE('',*,*,#411,.F.);
#526=ORIENTED_EDGE('',*,*,#412,.T.);
#527=ORIENTED_EDGE('',*,*,#413,.T.);
#528=ORIENTED_EDGE('',*,*,#409,.F.);
#529=ORIENTED_EDGE('',*,*,#414,.T.);
#530=ORIENTED_EDGE('',*,*,#415,.T.);
#531=ORIENTED_EDGE('',*,*,#416,.T.);
#532=ORIENTED_EDGE('',*,*,#412,.F.);
#533=ORIENTED_EDGE('',*,*,#417,.F.);
#534=ORIENTED_EDGE('',*,*,#418,.T.);
#535=ORIENTED_EDGE('',*,*,#419,.T.);
#536=ORIENTED_EDGE('',*,*,#415,.F.);
#537=ORIENTED_EDGE('',*,*,#420,.T.);
#538=ORIENTED_EDGE('',*,*,#421,.T.);
#539=ORIENTED_EDGE('',*,*,#422,.T.);
#540=ORIENTED_EDGE('',*,*,#418,.F.);
#541=ORIENTED_EDGE('',*,*,#423,.F.);
#542=ORIENTED_EDGE('',*,*,#424,.T.);
#543=ORIENTED_EDGE('',*,*,#425,.T.);
#544=ORIENTED_EDGE('',*,*,#421,.F.);
#545=ORIENTED_EDGE('',*,*,#426,.T.);
#546=ORIENTED_EDGE('',*,*,#427,.T.);
#547=ORIENTED_EDGE('',*,*,#428,.T.);
#548=ORIENTED_EDGE('',*,*,#424,.F.);
#549=ORIENTED_EDGE('',*,*,#429,.F.);
#550=ORIENTED_EDGE('',*,*,#430,.T.);
#551=ORIENTED_EDGE('',*,*,#431,.T.);
#552=ORIENTED_EDGE('',*,*,#427,.F.);
#553=ORIENTED_EDGE('',*,*,#432,.T.);
#554=ORIENTED_EDGE('',*,*,#433,.T.);
#555=ORIENTED_EDGE('',*,*,#434,.T.);
#556=ORIENTED_EDGE('',*,*,#430,.F.);
#557=ORIENTED_EDGE('',*,*,#435,.F.);
#558=ORIENTED_EDGE('',*,*,#436,.T.);
#559=ORIENTED_EDGE('',*,*,#437,.T.);
#560=ORIENTED_EDGE('',*,*,#433,.F.);
#561=ORIENTED_EDGE('',*,*,#438,.T.);
#562=ORIENTED_EDGE('',*,*,#439,.T.);
#563=ORIENTED_EDGE('',*,*,#440,.T.);
#564=ORIENTED_EDGE('',*,*,#436,.F.);
#565=ORIENTED_EDGE('',*,*,#441,.F.);
#566=ORIENTED_EDGE('',*,*,#442,.T.);
#567=ORIENTED_EDGE('',*,*,#443,.T.);
#568=ORIENTED_EDGE('',*,*,#439,.F.);
#569=ORIENTED_EDGE('',*,*,#444,.T.);
#570=ORIENTED_EDGE('',*,*,#445,.T.);
#571=ORIENTED_EDGE('',*,*,#446,.T.);
#572=ORIENTED_EDGE('',*,*,#442,.F.);
#573=ORIENTED_EDGE('',*,*,#447,.F.);
#574=ORIENTED_EDGE('',*,*,#389,.T.);
#575=ORIENTED_EDGE('',*,*,#448,.T.);
#576=ORIENTED_EDGE('',*,*,#445,.F.);
#577=ORIENTED_EDGE('',*,*,#448,.F.);
#578=ORIENTED_EDGE('',*,*,#388,.F.);
#579=ORIENTED_EDGE('',*,*,#392,.F.);
#580=ORIENTED_EDGE('',*,*,#395,.F.);
#581=ORIENTED_EDGE('',*,*,#398,.F.);
#582=ORIENTED_EDGE('',*,*,#401,.F.);
#583=ORIENTED_EDGE('',*,*,#404,.F.);
#584=ORIENTED_EDGE('',*,*,#407,.F.);
#585=ORIENTED_EDGE('',*,*,#410,.F.);
#586=ORIENTED_EDGE('',*,*,#413,.F.);
#587=ORIENTED_EDGE('',*,*,#416,.F.);
#588=ORIENTED_EDGE('',*,*,#419,.F.);
#589=ORIENTED_EDGE('',*,*,#422,.F.);
#590=ORIENTED_EDGE('',*,*,#425,.F.);
#591=ORIENTED_EDGE('',*,*,#428,.F.);
#592=ORIENTED_EDGE('',*,*,#431,.F.);
#593=ORIENTED_EDGE('',*,*,#434,.F.);
#594=ORIENTED_EDGE('',*,*,#437,.F.);
#595=ORIENTED_EDGE('',*,*,#440,.F.);
#596=ORIENTED_EDGE('',*,*,#443,.F.);
#597=ORIENTED_EDGE('',*,*,#446,.F.);
#598=ORIENTED_EDGE('',*,*,#360,.T.);
#599=ORIENTED_EDGE('',*,*,#363,.T.);
#600=ORIENTED_EDGE('',*,*,#353,.T.);
#601=ORIENTED_EDGE('',*,*,#357,.T.);
#602=ORIENTED_EDGE('',*,*,#383,.F.);
#603=ORIENTED_EDGE('',*,*,#380,.F.);
#604=ORIENTED_EDGE('',*,*,#377,.F.);
#605=ORIENTED_EDGE('',*,*,#374,.F.);
#606=ORIENTED_EDGE('',*,*,#371,.F.);
#607=ORIENTED_EDGE('',*,*,#368,.F.);
#608=ORIENTED_EDGE('',*,*,#365,.F.);
#609=ORIENTED_EDGE('',*,*,#447,.T.);
#610=ORIENTED_EDGE('',*,*,#444,.F.);
#611=ORIENTED_EDGE('',*,*,#441,.T.);
#612=ORIENTED_EDGE('',*,*,#438,.F.);
#613=ORIENTED_EDGE('',*,*,#435,.T.);
#614=ORIENTED_EDGE('',*,*,#432,.F.);
#615=ORIENTED_EDGE('',*,*,#429,.T.);
#616=ORIENTED_EDGE('',*,*,#426,.F.);
#617=ORIENTED_EDGE('',*,*,#423,.T.);
#618=ORIENTED_EDGE('',*,*,#420,.F.);
#619=ORIENTED_EDGE('',*,*,#417,.T.);
#620=ORIENTED_EDGE('',*,*,#414,.F.);
#621=ORIENTED_EDGE('',*,*,#411,.T.);
#622=ORIENTED_EDGE('',*,*,#408,.T.);
#623=ORIENTED_EDGE('',*,*,#405,.T.);
#624=ORIENTED_EDGE('',*,*,#402,.F.);
#625=ORIENTED_EDGE('',*,*,#399,.F.);
#626=ORIENTED_EDGE('',*,*,#396,.T.);
#627=ORIENTED_EDGE('',*,*,#393,.F.);
#628=ORIENTED_EDGE('',*,*,#390,.T.);
#629=ORIENTED_EDGE('',*,*,#386,.F.);
#630=ORIENTED_EDGE('',*,*,#361,.T.);
#631=ORIENTED_EDGE('',*,*,#358,.T.);
#632=ORIENTED_EDGE('',*,*,#355,.T.);
#633=ORIENTED_EDGE('',*,*,#364,.T.);
#634=ORIENTED_EDGE('',*,*,#385,.T.);
#635=ORIENTED_EDGE('',*,*,#382,.T.);
#636=ORIENTED_EDGE('',*,*,#379,.T.);
#637=ORIENTED_EDGE('',*,*,#376,.T.);
#638=ORIENTED_EDGE('',*,*,#373,.T.);
#639=ORIENTED_EDGE('',*,*,#370,.T.);
#640=ORIENTED_EDGE('',*,*,#367,.T.);
#641=PLANE('',#705);
#642=PLANE('',#706);
#643=PLANE('',#707);
#644=PLANE('',#708);
#645=PLANE('',#730);
#646=PLANE('',#731);
#647=PLANE('',#732);
#648=PLANE('',#733);
#649=PLANE('',#737);
#650=PLANE('',#738);
#651=PLANE('',#739);
#652=PLANE('',#740);
#653=PLANE('',#741);
#654=PLANE('',#742);
#655=PLANE('',#743);
#656=PLANE('',#744);
#657=ADVANCED_FACE('',(#85),#641,.F.);
#658=ADVANCED_FACE('',(#86),#642,.F.);
#659=ADVANCED_FACE('',(#87),#643,.F.);
#660=ADVANCED_FACE('',(#88),#644,.F.);
#661=ADVANCED_FACE('',(#89),#77,.F.);
#662=ADVANCED_FACE('',(#90),#78,.F.);
#663=ADVANCED_FACE('',(#91),#79,.F.);
#664=ADVANCED_FACE('',(#92),#80,.F.);
#665=ADVANCED_FACE('',(#93),#81,.F.);
#666=ADVANCED_FACE('',(#94),#82,.F.);
#667=ADVANCED_FACE('',(#95),#83,.F.);
#668=ADVANCED_FACE('',(#96),#645,.F.);
#669=ADVANCED_FACE('',(#97),#51,.F.);
#670=ADVANCED_FACE('',(#98),#646,.F.);
#671=ADVANCED_FACE('',(#99),#52,.F.);
#672=ADVANCED_FACE('',(#100),#647,.F.);
#673=ADVANCED_FACE('',(#101),#648,.F.);
#674=ADVANCED_FACE('',(#102),#84,.T.);
#675=ADVANCED_FACE('',(#103),#53,.F.);
#676=ADVANCED_FACE('',(#104),#54,.F.);
#677=ADVANCED_FACE('',(#105),#649,.F.);
#678=ADVANCED_FACE('',(#106),#55,.F.);
#679=ADVANCED_FACE('',(#107),#650,.F.);
#680=ADVANCED_FACE('',(#108),#56,.F.);
#681=ADVANCED_FACE('',(#109),#651,.F.);
#682=ADVANCED_FACE('',(#110),#57,.F.);
#683=ADVANCED_FACE('',(#111),#652,.F.);
#684=ADVANCED_FACE('',(#112),#58,.F.);
#685=ADVANCED_FACE('',(#113),#653,.F.);
#686=ADVANCED_FACE('',(#114),#59,.F.);
#687=ADVANCED_FACE('',(#115),#654,.F.);
#688=ADVANCED_FACE('',(#116),#60,.F.);
#689=ADVANCED_FACE('',(#117,#15,#16,#17,#18,#19,#20,#21,#22),#655,.F.);
#690=ADVANCED_FACE('',(#118,#23,#24,#25,#26,#27,#28,#29,#30),#656,.T.);
#691=CLOSED_SHELL('',(#657,#658,#659,#660,#661,#662,#663,#664,#665,#666,
#667,#668,#669,#670,#671,#672,#673,#674,#675,#676,#677,#678,#679,#680,#681,
#682,#683,#684,#685,#686,#687,#688,#689,#690));
#692=DERIVED_UNIT_ELEMENT(#694,1.);
#693=DERIVED_UNIT_ELEMENT(#1373,-3.);
#694=(
MASS_UNIT()
NAMED_UNIT(*)
SI_UNIT(.KILO.,.GRAM.)
);
#695=DERIVED_UNIT((#692,#693));
#696=MEASURE_REPRESENTATION_ITEM('density measure',
POSITIVE_RATIO_MEASURE(7850.),#695);
#697=PROPERTY_DEFINITION_REPRESENTATION(#702,#699);
#698=PROPERTY_DEFINITION_REPRESENTATION(#703,#700);
#699=REPRESENTATION('material name',(#701),#1370);
#700=REPRESENTATION('density',(#696),#1370);
#701=DESCRIPTIVE_REPRESENTATION_ITEM('Steel','Steel');
#702=PROPERTY_DEFINITION('material property','material name',#1380);
#703=PROPERTY_DEFINITION('material property','density of part',#1380);
#704=AXIS2_PLACEMENT_3D('',#887,#745,#746);
#705=AXIS2_PLACEMENT_3D('',#888,#747,#748);
#706=AXIS2_PLACEMENT_3D('',#897,#753,#754);
#707=AXIS2_PLACEMENT_3D('',#903,#758,#759);
#708=AXIS2_PLACEMENT_3D('',#909,#763,#764);
#709=AXIS2_PLACEMENT_3D('',#912,#767,#768);
#710=AXIS2_PLACEMENT_3D('',#914,#769,#770);
#711=AXIS2_PLACEMENT_3D('',#917,#772,#773);
#712=AXIS2_PLACEMENT_3D('',#918,#774,#775);
#713=AXIS2_PLACEMENT_3D('',#920,#776,#777);
#714=AXIS2_PLACEMENT_3D('',#923,#779,#780);
#715=AXIS2_PLACEMENT_3D('',#924,#781,#782);
#716=AXIS2_PLACEMENT_3D('',#926,#783,#784);
#717=AXIS2_PLACEMENT_3D('',#929,#786,#787);
#718=AXIS2_PLACEMENT_3D('',#930,#788,#789);
#719=AXIS2_PLACEMENT_3D('',#932,#790,#791);
#720=AXIS2_PLACEMENT_3D('',#935,#793,#794);
#721=AXIS2_PLACEMENT_3D('',#936,#795,#796);
#722=AXIS2_PLACEMENT_3D('',#938,#797,#798);
#723=AXIS2_PLACEMENT_3D('',#941,#800,#801);
#724=AXIS2_PLACEMENT_3D('',#942,#802,#803);
#725=AXIS2_PLACEMENT_3D('',#944,#804,#805);
#726=AXIS2_PLACEMENT_3D('',#947,#807,#808);
#727=AXIS2_PLACEMENT_3D('',#948,#809,#810);
#728=AXIS2_PLACEMENT_3D('',#950,#811,#812);
#729=AXIS2_PLACEMENT_3D('',#953,#814,#815);
#730=AXIS2_PLACEMENT_3D('',#954,#816,#817);
#731=AXIS2_PLACEMENT_3D('',#1018,#823,#824);
#732=AXIS2_PLACEMENT_3D('',#1067,#829,#830);
#733=AXIS2_PLACEMENT_3D('',#1073,#834,#835);
#734=AXIS2_PLACEMENT_3D('',#1079,#839,#840);
#735=AXIS2_PLACEMENT_3D('',#1081,#841,#842);
#736=AXIS2_PLACEMENT_3D('',#1084,#844,#845);
#737=AXIS2_PLACEMENT_3D('',#1123,#848,#849);
#738=AXIS2_PLACEMENT_3D('',#1196,#854,#855);
#739=AXIS2_PLACEMENT_3D('',#1233,#860,#861);
#740=AXIS2_PLACEMENT_3D('',#1258,#866,#867);
#741=AXIS2_PLACEMENT_3D('',#1295,#872,#873);
#742=AXIS2_PLACEMENT_3D('',#1320,#878,#879);
#743=AXIS2_PLACEMENT_3D('',#1366,#883,#884);
#744=AXIS2_PLACEMENT_3D('',#1367,#885,#886);
#745=DIRECTION('axis',(0.,0.,1.));
#746=DIRECTION('refdir',(1.,0.,0.));
#747=DIRECTION('center_axis',(1.,0.,0.));
#748=DIRECTION('ref_axis',(0.,1.,0.));
#749=DIRECTION('',(0.,-1.,0.));
#750=DIRECTION('',(0.,0.,1.));
#751=DIRECTION('',(0.,1.,0.));
#752=DIRECTION('',(0.,0.,1.));
#753=DIRECTION('center_axis',(0.,-1.,0.));
#754=DIRECTION('ref_axis',(1.,0.,0.));
#755=DIRECTION('',(-1.,0.,0.));
#756=DIRECTION('',(1.,0.,0.));
#757=DIRECTION('',(0.,0.,1.));
#758=DIRECTION('center_axis',(-1.,0.,0.));
#759=DIRECTION('ref_axis',(0.,-1.,0.));
#760=DIRECTION('',(0.,1.,0.));
#761=DIRECTION('',(0.,-1.,0.));
#762=DIRECTION('',(0.,0.,1.));
#763=DIRECTION('center_axis',(0.,1.,0.));
#764=DIRECTION('ref_axis',(-1.,0.,0.));
#765=DIRECTION('',(1.,0.,0.));
#766=DIRECTION('',(-1.,0.,0.));
#767=DIRECTION('center_axis',(0.,0.,-1.));
#768=DIRECTION('ref_axis',(-1.,7.99452788659302E-15,0.));
#769=DIRECTION('center_axis',(0.,0.,1.));
#770=DIRECTION('ref_axis',(-1.,7.99452788659302E-15,0.));
#771=DIRECTION('',(0.,0.,-1.));
#772=DIRECTION('center_axis',(0.,0.,1.));
#773=DIRECTION('ref_axis',(-1.,7.99452788659302E-15,0.));
#774=DIRECTION('center_axis',(0.,0.,-1.));
#775=DIRECTION('ref_axis',(-1.,7.99452788659302E-15,0.));
#776=DIRECTION('center_axis',(0.,0.,1.));
#777=DIRECTION('ref_axis',(-1.,7.99452788659302E-15,0.));
#778=DIRECTION('',(0.,0.,-1.));
#779=DIRECTION('center_axis',(0.,0.,1.));
#780=DIRECTION('ref_axis',(-1.,7.99452788659302E-15,0.));
#781=DIRECTION('center_axis',(0.,0.,-1.));
#782=DIRECTION('ref_axis',(-1.,7.99452788659302E-15,0.));
#783=DIRECTION('center_axis',(0.,0.,1.));
#784=DIRECTION('ref_axis',(-1.,7.99452788659302E-15,0.));
#785=DIRECTION('',(0.,0.,-1.));
#786=DIRECTION('center_axis',(0.,0.,1.));
#787=DIRECTION('ref_axis',(-1.,7.99452788659302E-15,0.));
#788=DIRECTION('center_axis',(0.,0.,-1.));
#789=DIRECTION('ref_axis',(-1.,7.99452788659302E-15,0.));
#790=DIRECTION('center_axis',(0.,0.,1.));
#791=DIRECTION('ref_axis',(-1.,7.99452788659302E-15,0.));
#792=DIRECTION('',(0.,0.,-1.));
#793=DIRECTION('center_axis',(0.,0.,1.));
#794=DIRECTION('ref_axis',(-1.,7.99452788659302E-15,0.));
#795=DIRECTION('center_axis',(0.,0.,-1.));
#796=DIRECTION('ref_axis',(-1.,7.99452788659302E-15,0.));
#797=DIRECTION('center_axis',(0.,0.,1.));
#798=DIRECTION('ref_axis',(-1.,7.99452788659302E-15,0.));
#799=DIRECTION('',(0.,0.,-1.));
#800=DIRECTION('center_axis',(0.,0.,1.));
#801=DIRECTION('ref_axis',(-1.,7.99452788659302E-15,0.));
#802=DIRECTION('center_axis',(0.,0.,-1.));
#803=DIRECTION('ref_axis',(-1.,7.99452788659302E-15,0.));
#804=DIRECTION('center_axis',(0.,0.,1.));
#805=DIRECTION('ref_axis',(-1.,7.99452788659302E-15,0.));
#806=DIRECTION('',(0.,0.,-1.));
#807=DIRECTION('center_axis',(0.,0.,1.));
#808=DIRECTION('ref_axis',(-1.,7.99452788659302E-15,0.));
#809=DIRECTION('center_axis',(0.,0.,-1.));
#810=DIRECTION('ref_axis',(-1.,7.99452788659302E-15,0.));
#811=DIRECTION('center_axis',(0.,0.,1.));
#812=DIRECTION('ref_axis',(-1.,7.99452788659302E-15,0.));
#813=DIRECTION('',(0.,0.,-1.));
#814=DIRECTION('center_axis',(0.,0.,1.));
#815=DIRECTION('ref_axis',(-1.,7.99452788659302E-15,0.));
#816=DIRECTION('center_axis',(-0.417502699410686,-0.908675682509877,0.));
#817=DIRECTION('ref_axis',(0.908675682509877,-0.417502699410686,0.));
#818=DIRECTION('',(-0.908675682509877,0.417502699410686,0.));
#819=DIRECTION('',(0.,0.,1.));
#820=DIRECTION('',(0.908675682509877,-0.417502699410686,0.));
#821=DIRECTION('',(0.,0.,1.));
#822=DIRECTION('',(0.,0.,1.));
#823=DIRECTION('center_axis',(-1.07144981685703E-11,-1.,0.));
#824=DIRECTION('ref_axis',(1.,-1.07144981685703E-11,0.));
#825=DIRECTION('',(-1.,1.07144981685703E-11,0.));
#826=DIRECTION('',(0.,0.,1.));
#827=DIRECTION('',(1.,-1.07144981685703E-11,0.));
#828=DIRECTION('',(0.,0.,1.));
#829=DIRECTION('center_axis',(0.514510014333242,-0.857484370207881,0.));
#830=DIRECTION('ref_axis',(0.857484370207881,0.514510014333242,0.));
#831=DIRECTION('',(-0.857484370207881,-0.514510014333242,0.));
#832=DIRECTION('',(0.,0.,1.));
#833=DIRECTION('',(0.857484370207881,0.514510014333242,0.));
#834=DIRECTION('center_axis',(-7.99452788659302E-15,-1.,0.));
#835=DIRECTION('ref_axis',(1.,-7.99452788659302E-15,0.));
#836=DIRECTION('',(-1.,7.99452788659302E-15,0.));
#837=DIRECTION('',(0.,0.,1.));
#838=DIRECTION('',(1.,-7.99452788659302E-15,0.));
#839=DIRECTION('center_axis',(0.,0.,-1.));
#840=DIRECTION('ref_axis',(-0.0356288246662038,0.999365091872287,0.));
#841=DIRECTION('center_axis',(0.,0.,-1.));
#842=DIRECTION('ref_axis',(-0.0356288246662038,0.999365091872287,0.));
#843=DIRECTION('',(0.,0.,1.));
#844=DIRECTION('center_axis',(0.,0.,-1.));
#845=DIRECTION('ref_axis',(-0.0356288246662038,0.999365091872287,0.));
#846=DIRECTION('',(0.,0.,1.));
#847=DIRECTION('',(0.,0.,1.));
#848=DIRECTION('center_axis',(1.,-3.99726394329651E-15,0.));
#849=DIRECTION('ref_axis',(3.99726394329651E-15,1.,0.));
#850=DIRECTION('',(-3.99726394329651E-15,-1.,0.));
#851=DIRECTION('',(0.,0.,1.));
#852=DIRECTION('',(3.99726394329651E-15,1.,0.));
#853=DIRECTION('',(0.,0.,1.));
#854=DIRECTION('center_axis',(0.905457446040648,0.424437054708408,0.));
#855=DIRECTION('ref_axis',(-0.424437054708408,0.905457446040647,0.));
#856=DIRECTION('',(0.424437054708408,-0.905457446040647,0.));
#857=DIRECTION('',(0.,0.,1.));
#858=DIRECTION('',(-0.424437054708408,0.905457446040647,0.));
#859=DIRECTION('',(0.,0.,1.));
#860=DIRECTION('center_axis',(0.532172315651817,0.846636064938048,0.));
#861=DIRECTION('ref_axis',(-0.846636064938048,0.532172315651817,0.));
#862=DIRECTION('',(0.846636064938048,-0.532172315651817,0.));
#863=DIRECTION('',(0.,0.,1.));
#864=DIRECTION('',(-0.846636064938048,0.532172315651817,0.));
#865=DIRECTION('',(0.,0.,1.));
#866=DIRECTION('center_axis',(-0.189674491825441,0.981847028386174,0.));
#867=DIRECTION('ref_axis',(-0.981847028386174,-0.189674491825441,0.));
#868=DIRECTION('',(0.981847028386174,0.189674491825441,0.));
#869=DIRECTION('',(0.,0.,1.));
#870=DIRECTION('',(-0.981847028386174,-0.189674491825441,0.));
#871=DIRECTION('',(0.,0.,1.));
#872=DIRECTION('center_axis',(-1.,-5.92721217181741E-12,0.));
#873=DIRECTION('ref_axis',(5.92721217181741E-12,-1.,0.));
#874=DIRECTION('',(-5.92721217181741E-12,1.,0.));
#875=DIRECTION('',(0.,0.,1.));
#876=DIRECTION('',(5.92721217181741E-12,-1.,0.));
#877=DIRECTION('',(0.,0.,1.));
#878=DIRECTION('center_axis',(-0.579205992264552,-0.815181218211531,0.));
#879=DIRECTION('ref_axis',(0.815181218211531,-0.579205992264552,0.));
#880=DIRECTION('',(-0.815181218211531,0.579205992264552,0.));
#881=DIRECTION('',(0.,0.,1.));
#882=DIRECTION('',(0.815181218211531,-0.579205992264552,0.));
#883=DIRECTION('center_axis',(0.,0.,-1.));
#884=DIRECTION('ref_axis',(-1.,7.99452788659302E-15,0.));
#885=DIRECTION('center_axis',(0.,0.,-1.));
#886=DIRECTION('ref_axis',(-1.,7.99452788659302E-15,0.));
#887=CARTESIAN_POINT('',(0.,0.,0.));
#888=CARTESIAN_POINT('Origin',(180.6294,265.3962,0.));
#889=CARTESIAN_POINT('',(180.6294,271.3962,1.6));
#890=CARTESIAN_POINT('',(180.6294,265.3962,1.6));
#891=CARTESIAN_POINT('',(180.6294,249.192532222162,1.6));
#892=CARTESIAN_POINT('',(180.6294,271.3962,0.));
#893=CARTESIAN_POINT('',(180.6294,271.3962,0.));
#894=CARTESIAN_POINT('',(180.6294,265.3962,0.));
#895=CARTESIAN_POINT('',(180.6294,249.192532222162,0.));
#896=CARTESIAN_POINT('',(180.6294,265.3962,0.));
#897=CARTESIAN_POINT('Origin',(176.6294,265.3962,0.));
#898=CARTESIAN_POINT('',(176.6294,265.3962,1.6));
#899=CARTESIAN_POINT('',(187.833009411983,265.3962,1.6));
#900=CARTESIAN_POINT('',(176.6294,265.3962,0.));
#901=CARTESIAN_POINT('',(187.833009411983,265.3962,0.));
#902=CARTESIAN_POINT('',(176.6294,265.3962,0.));
#903=CARTESIAN_POINT('Origin',(176.6294,271.3962,0.));
#904=CARTESIAN_POINT('',(176.6294,271.3962,1.6));
#905=CARTESIAN_POINT('',(176.6294,252.192532222162,1.6));
#906=CARTESIAN_POINT('',(176.6294,271.3962,0.));
#907=CARTESIAN_POINT('',(176.6294,252.192532222162,0.));
#908=CARTESIAN_POINT('',(176.6294,271.3962,0.));
#909=CARTESIAN_POINT('Origin',(180.6294,271.3962,0.));
#910=CARTESIAN_POINT('',(189.833009411983,271.3962,1.6));
#911=CARTESIAN_POINT('',(189.833009411983,271.3962,0.));
#912=CARTESIAN_POINT('Origin',(158.8683,197.963067852242,0.));
#913=CARTESIAN_POINT('',(160.1183,197.963067852242,1.6));
#914=CARTESIAN_POINT('Origin',(158.8683,197.963067852242,1.6));
#915=CARTESIAN_POINT('',(160.1183,197.963067852242,0.));
#916=CARTESIAN_POINT('',(160.1183,197.963067852242,0.));
#917=CARTESIAN_POINT('Origin',(158.8683,197.963067852242,0.));
#918=CARTESIAN_POINT('Origin',(148.572832144098,224.107183926121,0.));
#919=CARTESIAN_POINT('',(149.822832144098,224.107183926121,1.6));
#920=CARTESIAN_POINT('Origin',(148.572832144098,224.107183926121,1.6));
#921=CARTESIAN_POINT('',(149.822832144098,224.107183926121,0.));
#922=CARTESIAN_POINT('',(149.822832144098,224.107183926121,0.));
#923=CARTESIAN_POINT('Origin',(148.572832144098,224.107183926121,0.));
#924=CARTESIAN_POINT('Origin',(164.3728,266.707167852242,0.));
#925=CARTESIAN_POINT('',(165.6228,266.707167852242,1.6));
#926=CARTESIAN_POINT('Origin',(164.3728,266.707167852242,1.6));
#927=CARTESIAN_POINT('',(165.6228,266.707167852242,0.));
#928=CARTESIAN_POINT('',(165.6228,266.707167852242,0.));
#929=CARTESIAN_POINT('Origin',(164.3728,266.707167852242,0.));
#930=CARTESIAN_POINT('Origin',(240.5401,260.803799999999,0.));
#931=CARTESIAN_POINT('',(241.7901,260.803799999999,1.6));
#932=CARTESIAN_POINT('Origin',(240.5401,260.803799999999,1.6));
#933=CARTESIAN_POINT('',(241.7901,260.803799999999,0.));
#934=CARTESIAN_POINT('',(241.7901,260.803799999999,0.));
#935=CARTESIAN_POINT('Origin',(240.5401,260.803799999999,0.));
#936=CARTESIAN_POINT('Origin',(233.8334,203.872767852241,0.));
#937=CARTESIAN_POINT('',(235.0834,203.872767852241,1.6));
#938=CARTESIAN_POINT('Origin',(233.8334,203.872767852241,1.6));
#939=CARTESIAN_POINT('',(235.0834,203.872767852241,0.));
#940=CARTESIAN_POINT('',(235.0834,203.872767852241,0.));
#941=CARTESIAN_POINT('Origin',(233.8334,203.872767852241,0.));
#942=CARTESIAN_POINT('Origin',(155.6728,224.107167852242,0.));
#943=CARTESIAN_POINT('',(156.9228,224.107167852242,1.6));
#944=CARTESIAN_POINT('Origin',(155.6728,224.107167852242,1.6));
#945=CARTESIAN_POINT('',(156.9228,224.107167852242,0.));
#946=CARTESIAN_POINT('',(156.9228,224.107167852242,0.));
#947=CARTESIAN_POINT('Origin',(155.6728,224.107167852242,0.));
#948=CARTESIAN_POINT('Origin',(206.3584,221.897767852241,0.));
#949=CARTESIAN_POINT('',(207.6084,221.897767852241,1.6));
#950=CARTESIAN_POINT('Origin',(206.3584,221.897767852241,1.6));
#951=CARTESIAN_POINT('',(207.6084,221.897767852241,0.));
#952=CARTESIAN_POINT('',(207.6084,221.897767852241,0.));
#953=CARTESIAN_POINT('Origin',(206.3584,221.897767852241,0.));
#954=CARTESIAN_POINT('Origin',(220.093965693254,281.902807965576,0.));
#955=CARTESIAN_POINT('',(237.742119279003,273.794137398633,0.));
#956=CARTESIAN_POINT('',(220.093965691653,281.902807966311,0.));
#957=CARTESIAN_POINT('',(237.742119279003,273.794137398633,0.));
#958=CARTESIAN_POINT('',(220.093965691653,281.902807966311,1.6));
#959=CARTESIAN_POINT('',(220.093965691653,281.902807966311,0.));
#960=CARTESIAN_POINT('',(237.742119279003,273.794137398633,1.6));
#961=CARTESIAN_POINT('',(237.742119279003,273.794137398633,1.6));
#962=CARTESIAN_POINT('',(237.742119279003,273.794137398633,0.));
#963=CARTESIAN_POINT('Ctrl Pts',(217.380218903462,282.49629999968,0.));
#964=CARTESIAN_POINT('Ctrl Pts',(217.380218903462,282.49629999968,1.6));
#965=CARTESIAN_POINT('Ctrl Pts',(218.042302478822,282.496323809522,0.));
#966=CARTESIAN_POINT('Ctrl Pts',(218.042302478822,282.496323809522,1.6));
#967=CARTESIAN_POINT('Ctrl Pts',(218.698941397191,282.395190400174,0.));
#968=CARTESIAN_POINT('Ctrl Pts',(218.698941397191,282.395190400174,1.6));
#969=CARTESIAN_POINT('Ctrl Pts',(219.327631945549,282.197790731952,0.));
#970=CARTESIAN_POINT('Ctrl Pts',(219.327631945549,282.197790731952,1.6));
#971=CARTESIAN_POINT('Ctrl Pts',(219.563204154166,282.12382449221,0.));
#972=CARTESIAN_POINT('Ctrl Pts',(219.563204154166,282.12382449221,1.6));
#973=CARTESIAN_POINT('Ctrl Pts',(219.794868370798,282.036337861711,0.));
#974=CARTESIAN_POINT('Ctrl Pts',(219.794868370798,282.036337861711,1.6));
#975=CARTESIAN_POINT('Ctrl Pts',(220.021411420641,281.935603531338,0.));
#976=CARTESIAN_POINT('Ctrl Pts',(220.021411420641,281.935603531338,1.6));
#977=CARTESIAN_POINT('Ctrl Pts',(220.045643446026,281.924828551251,0.));
#978=CARTESIAN_POINT('Ctrl Pts',(220.045643446026,281.924828551251,1.6));
#979=CARTESIAN_POINT('Ctrl Pts',(220.082768436441,281.907951889347,0.));
#980=CARTESIAN_POINT('Ctrl Pts',(220.082768436441,281.907951889347,1.6));
#981=CARTESIAN_POINT('Ctrl Pts',(220.093898723761,281.902838730787,0.));
#982=CARTESIAN_POINT('Ctrl Pts',(220.093898723761,281.902838730787,1.6));
#983=CARTESIAN_POINT('Ctrl Pts',(220.093921046291,281.902828476008,0.));
#984=CARTESIAN_POINT('Ctrl Pts',(220.093921046291,281.902828476008,1.6));
#985=CARTESIAN_POINT('Ctrl Pts',(220.093943367133,281.902818222005,0.));
#986=CARTESIAN_POINT('Ctrl Pts',(220.093943367133,281.902818222005,1.6));
#987=CARTESIAN_POINT('Ctrl Pts',(220.093965689857,281.902807967137,0.));
#988=CARTESIAN_POINT('Ctrl Pts',(220.093965689857,281.902807967137,1.6));
#989=CARTESIAN_POINT('',(217.380218903461,282.49629999968,0.));
#990=CARTESIAN_POINT('Ctrl Pts',(217.380218903462,282.49629999968,0.));
#991=CARTESIAN_POINT('Ctrl Pts',(218.042302478822,282.496323809522,0.));
#992=CARTESIAN_POINT('Ctrl Pts',(218.698941397191,282.395190400174,0.));
#993=CARTESIAN_POINT('Ctrl Pts',(219.327631945549,282.197790731952,0.));
#994=CARTESIAN_POINT('Ctrl Pts',(219.563204154166,282.12382449221,0.));
#995=CARTESIAN_POINT('Ctrl Pts',(219.794868370798,282.036337861711,0.));
#996=CARTESIAN_POINT('Ctrl Pts',(220.021411420641,281.935603531338,0.));
#997=CARTESIAN_POINT('Ctrl Pts',(220.045643446026,281.924828551251,0.));
#998=CARTESIAN_POINT('Ctrl Pts',(220.082768436441,281.907951889347,0.));
#999=CARTESIAN_POINT('Ctrl Pts',(220.093898723761,281.902838730787,0.));
#1000=CARTESIAN_POINT('Ctrl Pts',(220.093921046291,281.902828476008,0.));
#1001=CARTESIAN_POINT('Ctrl Pts',(220.093943367133,281.902818222005,0.));
#1002=CARTESIAN_POINT('Ctrl Pts',(220.093965689857,281.902807967137,0.));
#1003=CARTESIAN_POINT('',(217.380218903461,282.49629999968,1.6));
#1004=CARTESIAN_POINT('',(217.380218903461,282.49629999968,0.));
#1005=CARTESIAN_POINT('Ctrl Pts',(217.380218903462,282.49629999968,1.6));
#1006=CARTESIAN_POINT('Ctrl Pts',(218.042302478822,282.496323809522,1.6));
#1007=CARTESIAN_POINT('Ctrl Pts',(218.698941397191,282.395190400174,1.6));
#1008=CARTESIAN_POINT('Ctrl Pts',(219.327631945549,282.197790731952,1.6));
#1009=CARTESIAN_POINT('Ctrl Pts',(219.563204154166,282.12382449221,1.6));
#1010=CARTESIAN_POINT('Ctrl Pts',(219.794868370798,282.036337861711,1.6));
#1011=CARTESIAN_POINT('Ctrl Pts',(220.021411420641,281.935603531338,1.6));
#1012=CARTESIAN_POINT('Ctrl Pts',(220.045643446026,281.924828551251,1.6));
#1013=CARTESIAN_POINT('Ctrl Pts',(220.082768436441,281.907951889347,1.6));
#1014=CARTESIAN_POINT('Ctrl Pts',(220.093898723761,281.902838730787,1.6));
#1015=CARTESIAN_POINT('Ctrl Pts',(220.093921046291,281.902828476008,1.6));
#1016=CARTESIAN_POINT('Ctrl Pts',(220.093943367133,281.902818222005,1.6));
#1017=CARTESIAN_POINT('Ctrl Pts',(220.093965689857,281.902807967137,1.6));
#1018=CARTESIAN_POINT('Origin',(200.367416552191,282.496299999863,0.));
#1019=CARTESIAN_POINT('',(200.367416552191,282.496299999863,0.));
#1020=CARTESIAN_POINT('',(217.380218903461,282.49629999968,0.));
#1021=CARTESIAN_POINT('',(200.367416552191,282.496299999863,1.6));
#1022=CARTESIAN_POINT('',(200.367416552191,282.496299999863,0.));
#1023=CARTESIAN_POINT('',(217.380218903461,282.49629999968,1.6));
#1024=CARTESIAN_POINT('Ctrl Pts',(197.023156137625,281.570020009461,0.));
#1025=CARTESIAN_POINT('Ctrl Pts',(197.023156137625,281.570020009461,1.6));
#1026=CARTESIAN_POINT('Ctrl Pts',(197.023165643471,281.570025712801,0.));
#1027=CARTESIAN_POINT('Ctrl Pts',(197.023165643471,281.570025712801,1.6));
#1028=CARTESIAN_POINT('Ctrl Pts',(197.023175149075,281.570031415996,0.));
#1029=CARTESIAN_POINT('Ctrl Pts',(197.023175149075,281.570031415996,1.6));
#1030=CARTESIAN_POINT('Ctrl Pts',(197.023184654861,281.570037119301,0.));
#1031=CARTESIAN_POINT('Ctrl Pts',(197.023184654861,281.570037119301,1.6));
#1032=CARTESIAN_POINT('Ctrl Pts',(197.039488827169,281.579819335984,0.));
#1033=CARTESIAN_POINT('Ctrl Pts',(197.039488827169,281.579819335984,1.6));
#1034=CARTESIAN_POINT('Ctrl Pts',(197.093921398118,281.612022897114,0.));
#1035=CARTESIAN_POINT('Ctrl Pts',(197.093921398118,281.612022897114,1.6));
#1036=CARTESIAN_POINT('Ctrl Pts',(197.129564812272,281.632498830177,0.));
#1037=CARTESIAN_POINT('Ctrl Pts',(197.129564812272,281.632498830177,1.6));
#1038=CARTESIAN_POINT('Ctrl Pts',(198.114083277067,282.198071311463,0.));
#1039=CARTESIAN_POINT('Ctrl Pts',(198.114083277067,282.198071311463,1.6));
#1040=CARTESIAN_POINT('Ctrl Pts',(199.230686690203,282.496311579869,0.));
#1041=CARTESIAN_POINT('Ctrl Pts',(199.230686690203,282.496311579869,1.6));
#1042=CARTESIAN_POINT('Ctrl Pts',(200.367416552191,282.496300000073,0.));
#1043=CARTESIAN_POINT('Ctrl Pts',(200.367416552191,282.496300000073,1.6));
#1044=CARTESIAN_POINT('',(197.023159308634,281.57002191201,0.));
#1045=CARTESIAN_POINT('Ctrl Pts',(197.023156137625,281.570020009461,0.));
#1046=CARTESIAN_POINT('Ctrl Pts',(197.023165643471,281.570025712801,0.));
#1047=CARTESIAN_POINT('Ctrl Pts',(197.023175149075,281.570031415996,0.));
#1048=CARTESIAN_POINT('Ctrl Pts',(197.023184654861,281.570037119301,0.));
#1049=CARTESIAN_POINT('Ctrl Pts',(197.039488827169,281.579819335984,0.));
#1050=CARTESIAN_POINT('Ctrl Pts',(197.093921398118,281.612022897114,0.));
#1051=CARTESIAN_POINT('Ctrl Pts',(197.129564812272,281.632498830177,0.));
#1052=CARTESIAN_POINT('Ctrl Pts',(198.114083277067,282.198071311463,0.));
#1053=CARTESIAN_POINT('Ctrl Pts',(199.230686690203,282.496311579869,0.));
#1054=CARTESIAN_POINT('Ctrl Pts',(200.367416552191,282.496300000073,0.));
#1055=CARTESIAN_POINT('',(197.023159308634,281.57002191201,1.6));
#1056=CARTESIAN_POINT('',(197.023159308634,281.57002191201,0.));
#1057=CARTESIAN_POINT('Ctrl Pts',(197.023156137625,281.570020009461,1.6));
#1058=CARTESIAN_POINT('Ctrl Pts',(197.023165643471,281.570025712801,1.6));
#1059=CARTESIAN_POINT('Ctrl Pts',(197.023175149075,281.570031415996,1.6));
#1060=CARTESIAN_POINT('Ctrl Pts',(197.023184654861,281.570037119301,1.6));
#1061=CARTESIAN_POINT('Ctrl Pts',(197.039488827169,281.579819335984,1.6));
#1062=CARTESIAN_POINT('Ctrl Pts',(197.093921398118,281.612022897114,1.6));
#1063=CARTESIAN_POINT('Ctrl Pts',(197.129564812272,281.632498830177,1.6));
#1064=CARTESIAN_POINT('Ctrl Pts',(198.114083277067,282.198071311463,1.6));
#1065=CARTESIAN_POINT('Ctrl Pts',(199.230686690203,282.496311579869,1.6));
#1066=CARTESIAN_POINT('Ctrl Pts',(200.367416552191,282.496300000073,1.6));
#1067=CARTESIAN_POINT('Origin',(190.067051645271,277.3962,0.));
#1068=CARTESIAN_POINT('',(190.067051645271,277.3962,0.));
#1069=CARTESIAN_POINT('',(197.023159308634,281.57002191201,0.));
#1070=CARTESIAN_POINT('',(190.067051645271,277.3962,1.6));
#1071=CARTESIAN_POINT('',(190.067051645271,277.3962,0.));
#1072=CARTESIAN_POINT('',(197.023159308634,281.57002191201,1.6));
#1073=CARTESIAN_POINT('Origin',(142.6294,277.3962,0.));
#1074=CARTESIAN_POINT('',(142.6294,277.3962,0.));
#1075=CARTESIAN_POINT('',(190.067051645271,277.3962,0.));
#1076=CARTESIAN_POINT('',(142.6294,277.3962,1.6));
#1077=CARTESIAN_POINT('',(142.6294,277.3962,0.));
#1078=CARTESIAN_POINT('',(190.067051645271,277.3962,1.6));
#1079=CARTESIAN_POINT('Origin',(142.6294,273.8962,0.));
#1080=CARTESIAN_POINT('',(142.504699113669,277.393977821553,0.));
#1081=CARTESIAN_POINT('Origin',(142.6294,273.8962,0.));
#1082=CARTESIAN_POINT('',(142.504699113669,277.393977821553,1.6));
#1083=CARTESIAN_POINT('',(142.504699113669,277.393977821553,0.));
#1084=CARTESIAN_POINT('Origin',(142.6294,273.8962,1.6));
#1085=CARTESIAN_POINT('Ctrl Pts',(140.000450117969,276.250342463617,0.));
#1086=CARTESIAN_POINT('Ctrl Pts',(140.000450117969,276.250342463617,1.6));
#1087=CARTESIAN_POINT('Ctrl Pts',(140.649572708293,276.947622640909,0.));
#1088=CARTESIAN_POINT('Ctrl Pts',(140.649572708293,276.947622640909,1.6));
#1089=CARTESIAN_POINT('Ctrl Pts',(141.552671595687,277.360036650512,0.));
#1090=CARTESIAN_POINT('Ctrl Pts',(141.552671595687,277.360036650512,1.6));
#1091=CARTESIAN_POINT('Ctrl Pts',(142.504699113668,277.393977821553,0.));
#1092=CARTESIAN_POINT('Ctrl Pts',(142.504699113668,277.393977821553,1.6));
#1093=CARTESIAN_POINT('',(140.000445408192,276.250337404418,0.));
#1094=CARTESIAN_POINT('Ctrl Pts',(140.000450117969,276.250342463617,0.));
#1095=CARTESIAN_POINT('Ctrl Pts',(140.649572708293,276.947622640909,0.));
#1096=CARTESIAN_POINT('Ctrl Pts',(141.552671595687,277.360036650512,0.));
#1097=CARTESIAN_POINT('Ctrl Pts',(142.504699113668,277.393977821553,0.));
#1098=CARTESIAN_POINT('',(140.000445408192,276.250337404418,1.6));
#1099=CARTESIAN_POINT('',(140.000445408192,276.250337404418,0.));
#1100=CARTESIAN_POINT('Ctrl Pts',(140.000450117969,276.250342463617,1.6));
#1101=CARTESIAN_POINT('Ctrl Pts',(140.649572708293,276.947622640909,1.6));
#1102=CARTESIAN_POINT('Ctrl Pts',(141.552671595687,277.360036650512,1.6));
#1103=CARTESIAN_POINT('Ctrl Pts',(142.504699113668,277.393977821553,1.6));
#1104=CARTESIAN_POINT('Ctrl Pts',(139.0364,273.77862122718,0.));
#1105=CARTESIAN_POINT('Ctrl Pts',(139.0364,273.77862122718,1.6));
#1106=CARTESIAN_POINT('Ctrl Pts',(139.031023385401,274.693206425101,0.));
#1107=CARTESIAN_POINT('Ctrl Pts',(139.031023385401,274.693206425101,1.6));
#1108=CARTESIAN_POINT('Ctrl Pts',(139.375817600582,275.579366589925,0.));
#1109=CARTESIAN_POINT('Ctrl Pts',(139.375817600582,275.579366589925,1.6));
#1110=CARTESIAN_POINT('Ctrl Pts',(140.000445408192,276.250337404418,0.));
#1111=CARTESIAN_POINT('Ctrl Pts',(140.000445408192,276.250337404418,1.6));
#1112=CARTESIAN_POINT('',(139.0364,273.77862122718,0.));
#1113=CARTESIAN_POINT('Ctrl Pts',(139.0364,273.77862122718,0.));
#1114=CARTESIAN_POINT('Ctrl Pts',(139.031023385401,274.693206425101,0.));
#1115=CARTESIAN_POINT('Ctrl Pts',(139.375817600582,275.579366589925,0.));
#1116=CARTESIAN_POINT('Ctrl Pts',(140.000445408192,276.250337404418,0.));
#1117=CARTESIAN_POINT('',(139.0364,273.77862122718,1.6));
#1118=CARTESIAN_POINT('',(139.0364,273.77862122718,0.));
#1119=CARTESIAN_POINT('Ctrl Pts',(139.0364,273.77862122718,1.6));
#1120=CARTESIAN_POINT('Ctrl Pts',(139.031023385401,274.693206425101,1.6));
#1121=CARTESIAN_POINT('Ctrl Pts',(139.375817600582,275.579366589925,1.6));
#1122=CARTESIAN_POINT('Ctrl Pts',(140.000445408192,276.250337404418,1.6));
#1123=CARTESIAN_POINT('Origin',(139.0364,214.664504567432,0.));
#1124=CARTESIAN_POINT('',(139.0364,214.664504566865,0.));
#1125=CARTESIAN_POINT('',(139.0364,227.9963,0.));
#1126=CARTESIAN_POINT('',(139.0364,214.664504566865,1.6));
#1127=CARTESIAN_POINT('',(139.0364,214.664504566865,0.));
#1128=CARTESIAN_POINT('',(139.0364,227.9963,1.6));
#1129=CARTESIAN_POINT('Ctrl Pts',(139.651036489472,211.905690202169,0.));
#1130=CARTESIAN_POINT('Ctrl Pts',(139.651036489472,211.905690202169,1.6));
#1131=CARTESIAN_POINT('Ctrl Pts',(139.440890825129,212.353951096231,0.));
#1132=CARTESIAN_POINT('Ctrl Pts',(139.440890825129,212.353951096231,1.6));
#1133=CARTESIAN_POINT('Ctrl Pts',(139.283259644785,212.823449353127,0.));
#1134=CARTESIAN_POINT('Ctrl Pts',(139.283259644785,212.823449353127,1.6));
#1135=CARTESIAN_POINT('Ctrl Pts',(139.180281847607,213.304706218071,0.));
#1136=CARTESIAN_POINT('Ctrl Pts',(139.180281847607,213.304706218071,1.6));
#1137=CARTESIAN_POINT('Ctrl Pts',(139.11533340605,213.608236534536,0.));
#1138=CARTESIAN_POINT('Ctrl Pts',(139.11533340605,213.608236534536,1.6));
#1139=CARTESIAN_POINT('Ctrl Pts',(139.0721153595,213.916474164358,0.));
#1140=CARTESIAN_POINT('Ctrl Pts',(139.0721153595,213.916474164358,1.6));
#1141=CARTESIAN_POINT('Ctrl Pts',(139.051153173312,214.227068232168,0.));
#1142=CARTESIAN_POINT('Ctrl Pts',(139.051153173312,214.227068232168,1.6));
#1143=CARTESIAN_POINT('Ctrl Pts',(139.04404971772,214.332319237391,0.));
#1144=CARTESIAN_POINT('Ctrl Pts',(139.04404971772,214.332319237391,1.6));
#1145=CARTESIAN_POINT('Ctrl Pts',(139.039502085533,214.437839836119,0.));
#1146=CARTESIAN_POINT('Ctrl Pts',(139.039502085533,214.437839836119,1.6));
#1147=CARTESIAN_POINT('Ctrl Pts',(139.037530549239,214.543534071649,0.));
#1148=CARTESIAN_POINT('Ctrl Pts',(139.037530549239,214.543534071649,1.6));
#1149=CARTESIAN_POINT('Ctrl Pts',(139.036779048922,214.583822070271,0.));
#1150=CARTESIAN_POINT('Ctrl Pts',(139.036779048922,214.583822070271,1.6));
#1151=CARTESIAN_POINT('Ctrl Pts',(139.036401018923,214.645819869577,0.));
#1152=CARTESIAN_POINT('Ctrl Pts',(139.036401018923,214.645819869577,1.6));
#1153=CARTESIAN_POINT('Ctrl Pts',(139.036400003717,214.664436401845,0.));
#1154=CARTESIAN_POINT('Ctrl Pts',(139.036400003717,214.664436401845,1.6));
#1155=CARTESIAN_POINT('Ctrl Pts',(139.036400002478,214.664459123539,0.));
#1156=CARTESIAN_POINT('Ctrl Pts',(139.036400002478,214.664459123539,1.6));
#1157=CARTESIAN_POINT('Ctrl Pts',(139.036400001239,214.664481845172,0.));
#1158=CARTESIAN_POINT('Ctrl Pts',(139.036400001239,214.664481845172,1.6));
#1159=CARTESIAN_POINT('Ctrl Pts',(139.0364,214.664504566828,0.));
#1160=CARTESIAN_POINT('Ctrl Pts',(139.0364,214.664504566828,1.6));
#1161=CARTESIAN_POINT('',(139.651036489485,211.905690202141,0.));
#1162=CARTESIAN_POINT('Ctrl Pts',(139.651036489472,211.905690202169,0.));
#1163=CARTESIAN_POINT('Ctrl Pts',(139.440890825129,212.353951096231,0.));
#1164=CARTESIAN_POINT('Ctrl Pts',(139.283259644785,212.823449353127,0.));
#1165=CARTESIAN_POINT('Ctrl Pts',(139.180281847607,213.304706218071,0.));
#1166=CARTESIAN_POINT('Ctrl Pts',(139.11533340605,213.608236534536,0.));
#1167=CARTESIAN_POINT('Ctrl Pts',(139.0721153595,213.916474164358,0.));
#1168=CARTESIAN_POINT('Ctrl Pts',(139.051153173312,214.227068232168,0.));
#1169=CARTESIAN_POINT('Ctrl Pts',(139.04404971772,214.332319237391,0.));
#1170=CARTESIAN_POINT('Ctrl Pts',(139.039502085533,214.437839836119,0.));
#1171=CARTESIAN_POINT('Ctrl Pts',(139.037530549239,214.543534071649,0.));
#1172=CARTESIAN_POINT('Ctrl Pts',(139.036779048922,214.583822070271,0.));
#1173=CARTESIAN_POINT('Ctrl Pts',(139.036401018923,214.645819869577,0.));
#1174=CARTESIAN_POINT('Ctrl Pts',(139.036400003717,214.664436401845,0.));
#1175=CARTESIAN_POINT('Ctrl Pts',(139.036400002478,214.664459123539,0.));
#1176=CARTESIAN_POINT('Ctrl Pts',(139.036400001239,214.664481845172,0.));
#1177=CARTESIAN_POINT('Ctrl Pts',(139.0364,214.664504566828,0.));
#1178=CARTESIAN_POINT('',(139.651036489485,211.905690202141,1.6));
#1179=CARTESIAN_POINT('',(139.651036489485,211.905690202141,0.));
#1180=CARTESIAN_POINT('Ctrl Pts',(139.651036489472,211.905690202169,1.6));
#1181=CARTESIAN_POINT('Ctrl Pts',(139.440890825129,212.353951096231,1.6));
#1182=CARTESIAN_POINT('Ctrl Pts',(139.283259644785,212.823449353127,1.6));
#1183=CARTESIAN_POINT('Ctrl Pts',(139.180281847607,213.304706218071,1.6));
#1184=CARTESIAN_POINT('Ctrl Pts',(139.11533340605,213.608236534536,1.6));
#1185=CARTESIAN_POINT('Ctrl Pts',(139.0721153595,213.916474164358,1.6));
#1186=CARTESIAN_POINT('Ctrl Pts',(139.051153173312,214.227068232168,1.6));
#1187=CARTESIAN_POINT('Ctrl Pts',(139.04404971772,214.332319237391,1.6));
#1188=CARTESIAN_POINT('Ctrl Pts',(139.039502085533,214.437839836119,1.6));
#1189=CARTESIAN_POINT('Ctrl Pts',(139.037530549239,214.543534071649,1.6));
#1190=CARTESIAN_POINT('Ctrl Pts',(139.036779048922,214.583822070271,1.6));
#1191=CARTESIAN_POINT('Ctrl Pts',(139.036401018923,214.645819869577,1.6));
#1192=CARTESIAN_POINT('Ctrl Pts',(139.036400003717,214.664436401845,1.6));
#1193=CARTESIAN_POINT('Ctrl Pts',(139.036400002478,214.664459123539,1.6));
#1194=CARTESIAN_POINT('Ctrl Pts',(139.036400001239,214.664481845172,1.6));
#1195=CARTESIAN_POINT('Ctrl Pts',(139.0364,214.664504566828,1.6));
#1196=CARTESIAN_POINT('Origin',(146.493465755567,197.308641100864,0.));
#1197=CARTESIAN_POINT('',(146.493465755567,197.308641100864,0.));
#1198=CARTESIAN_POINT('',(139.651036489485,211.905690202141,0.));
#1199=CARTESIAN_POINT('',(146.493465755567,197.308641100864,1.6));
#1200=CARTESIAN_POINT('',(146.493465755567,197.308641100864,0.));
#1201=CARTESIAN_POINT('',(139.651036489485,211.905690202141,1.6));
#1202=CARTESIAN_POINT('Ctrl Pts',(148.919774346927,194.564287945628,0.));
#1203=CARTESIAN_POINT('Ctrl Pts',(148.919774346927,194.564287945628,1.6));
#1204=CARTESIAN_POINT('Ctrl Pts',(148.919759790252,194.56429709601,0.));
#1205=CARTESIAN_POINT('Ctrl Pts',(148.919759790252,194.56429709601,1.6));
#1206=CARTESIAN_POINT('Ctrl Pts',(148.919745234441,194.564306245849,0.));
#1207=CARTESIAN_POINT('Ctrl Pts',(148.919745234441,194.564306245849,1.6));
#1208=CARTESIAN_POINT('Ctrl Pts',(148.919730679495,194.564315395145,0.));
#1209=CARTESIAN_POINT('Ctrl Pts',(148.919730679495,194.564315395145,1.6));
#1210=CARTESIAN_POINT('Ctrl Pts',(147.864839873689,195.227423842007,0.));
#1211=CARTESIAN_POINT('Ctrl Pts',(147.864839873689,195.227423842007,1.6));
#1212=CARTESIAN_POINT('Ctrl Pts',(147.022284217375,196.180430625823,0.));
#1213=CARTESIAN_POINT('Ctrl Pts',(147.022284217375,196.180430625823,1.6));
#1214=CARTESIAN_POINT('Ctrl Pts',(146.493465755567,197.308641100864,0.));
#1215=CARTESIAN_POINT('Ctrl Pts',(146.493465755567,197.308641100864,1.6));
#1216=CARTESIAN_POINT('',(148.919774346927,194.564287945628,0.));
#1217=CARTESIAN_POINT('Ctrl Pts',(148.919774346927,194.564287945628,0.));
#1218=CARTESIAN_POINT('Ctrl Pts',(148.919759790252,194.56429709601,0.));
#1219=CARTESIAN_POINT('Ctrl Pts',(148.919745234441,194.564306245849,0.));
#1220=CARTESIAN_POINT('Ctrl Pts',(148.919730679495,194.564315395145,0.));
#1221=CARTESIAN_POINT('Ctrl Pts',(147.864839873689,195.227423842007,0.));
#1222=CARTESIAN_POINT('Ctrl Pts',(147.022284217375,196.180430625823,0.));
#1223=CARTESIAN_POINT('Ctrl Pts',(146.493465755567,197.308641100864,0.));
#1224=CARTESIAN_POINT('',(148.919774346927,194.564287945628,1.6));
#1225=CARTESIAN_POINT('',(148.919774346927,194.564287945628,0.));
#1226=CARTESIAN_POINT('Ctrl Pts',(148.919774346927,194.564287945628,1.6));
#1227=CARTESIAN_POINT('Ctrl Pts',(148.919759790252,194.56429709601,1.6));
#1228=CARTESIAN_POINT('Ctrl Pts',(148.919745234441,194.564306245849,1.6));
#1229=CARTESIAN_POINT('Ctrl Pts',(148.919730679495,194.564315395145,1.6));
#1230=CARTESIAN_POINT('Ctrl Pts',(147.864839873689,195.227423842007,1.6));
#1231=CARTESIAN_POINT('Ctrl Pts',(147.022284217375,196.180430625823,1.6));
#1232=CARTESIAN_POINT('Ctrl Pts',(146.493465755567,197.308641100864,1.6));
#1233=CARTESIAN_POINT('Origin',(164.671304518839,184.663306126173,0.));
#1234=CARTESIAN_POINT('',(164.671304518839,184.663306126173,0.));
#1235=CARTESIAN_POINT('',(148.919774346927,194.564287945628,0.));
#1236=CARTESIAN_POINT('',(164.671304518839,184.663306126173,1.6));
#1237=CARTESIAN_POINT('',(164.671304518839,184.663306126173,0.));
#1238=CARTESIAN_POINT('',(148.919774346927,194.564287945628,1.6));
#1239=CARTESIAN_POINT('Ctrl Pts',(169.363266435567,183.784536504524,0.));
#1240=CARTESIAN_POINT('Ctrl Pts',(169.363266435567,183.784536504524,1.6));
#1241=CARTESIAN_POINT('Ctrl Pts',(167.745492494672,183.472008914216,0.));
#1242=CARTESIAN_POINT('Ctrl Pts',(167.745492494672,183.472008914216,1.6));
#1243=CARTESIAN_POINT('Ctrl Pts',(166.066325313766,183.786504826361,0.));
#1244=CARTESIAN_POINT('Ctrl Pts',(166.066325313766,183.786504826361,1.6));
#1245=CARTESIAN_POINT('Ctrl Pts',(164.671304522116,184.663306124114,0.));
#1246=CARTESIAN_POINT('Ctrl Pts',(164.671304522116,184.663306124114,1.6));
#1247=CARTESIAN_POINT('',(169.363266435567,183.784536504524,0.));
#1248=CARTESIAN_POINT('Ctrl Pts',(169.363266435567,183.784536504524,0.));
#1249=CARTESIAN_POINT('Ctrl Pts',(167.745492494672,183.472008914216,0.));
#1250=CARTESIAN_POINT('Ctrl Pts',(166.066325313766,183.786504826361,0.));
#1251=CARTESIAN_POINT('Ctrl Pts',(164.671304522116,184.663306124114,0.));
#1252=CARTESIAN_POINT('',(169.363266435567,183.784536504524,1.6));
#1253=CARTESIAN_POINT('',(169.363266435567,183.784536504524,0.));
#1254=CARTESIAN_POINT('Ctrl Pts',(169.363266435567,183.784536504524,1.6));
#1255=CARTESIAN_POINT('Ctrl Pts',(167.745492494672,183.472008914216,1.6));
#1256=CARTESIAN_POINT('Ctrl Pts',(166.066325313766,183.786504826361,1.6));
#1257=CARTESIAN_POINT('Ctrl Pts',(164.671304522116,184.663306124114,1.6));
#1258=CARTESIAN_POINT('Origin',(253.769549345196,200.090252522296,0.));
#1259=CARTESIAN_POINT('',(253.769549345214,200.090252522299,0.));
#1260=CARTESIAN_POINT('',(169.363266435567,183.784536504524,0.));
#1261=CARTESIAN_POINT('',(253.769549345214,200.090252522299,1.6));
#1262=CARTESIAN_POINT('',(253.769549345214,200.090252522299,0.));
#1263=CARTESIAN_POINT('',(169.363266435567,183.784536504524,1.6));
#1264=CARTESIAN_POINT('Ctrl Pts',(259.036499999927,206.472338843137,0.));
#1265=CARTESIAN_POINT('Ctrl Pts',(259.036499999927,206.472338843137,1.6));
#1266=CARTESIAN_POINT('Ctrl Pts',(259.036541362818,204.075476526633,0.));
#1267=CARTESIAN_POINT('Ctrl Pts',(259.036541362818,204.075476526633,1.6));
#1268=CARTESIAN_POINT('Ctrl Pts',(257.714345928983,201.910666039629,0.));
#1269=CARTESIAN_POINT('Ctrl Pts',(257.714345928983,201.910666039629,1.6));
#1270=CARTESIAN_POINT('Ctrl Pts',(255.688876581387,200.787389335363,0.));
#1271=CARTESIAN_POINT('Ctrl Pts',(255.688876581387,200.787389335363,1.6));
#1272=CARTESIAN_POINT('Ctrl Pts',(255.101012633136,200.461374093942,0.));
#1273=CARTESIAN_POINT('Ctrl Pts',(255.101012633136,200.461374093942,1.6));
#1274=CARTESIAN_POINT('Ctrl Pts',(254.452574412335,200.222218469349,0.));
#1275=CARTESIAN_POINT('Ctrl Pts',(254.452574412335,200.222218469349,1.6));
#1276=CARTESIAN_POINT('Ctrl Pts',(253.769549344934,200.090252522245,0.));
#1277=CARTESIAN_POINT('Ctrl Pts',(253.769549344934,200.090252522245,1.6));
#1278=CARTESIAN_POINT('',(259.036499999927,206.472338843141,0.));
#1279=CARTESIAN_POINT('Ctrl Pts',(259.036499999927,206.472338843134,0.));
#1280=CARTESIAN_POINT('Ctrl Pts',(259.036541362816,204.075476526631,0.));
#1281=CARTESIAN_POINT('Ctrl Pts',(257.714345928982,201.910666039629,0.));
#1282=CARTESIAN_POINT('Ctrl Pts',(255.688876581387,200.787389335363,0.));
#1283=CARTESIAN_POINT('Ctrl Pts',(255.10101263313,200.461374093939,0.));
#1284=CARTESIAN_POINT('Ctrl Pts',(254.452574412322,200.222218469344,0.));
#1285=CARTESIAN_POINT('Ctrl Pts',(253.769549344914,200.090252522241,0.));
#1286=CARTESIAN_POINT('',(259.036499999927,206.472338843141,1.6));
#1287=CARTESIAN_POINT('',(259.036499999927,206.472338843141,0.));
#1288=CARTESIAN_POINT('Ctrl Pts',(259.036499999927,206.472338843134,1.6));
#1289=CARTESIAN_POINT('Ctrl Pts',(259.036541362816,204.075476526631,1.6));
#1290=CARTESIAN_POINT('Ctrl Pts',(257.714345928982,201.910666039629,1.6));
#1291=CARTESIAN_POINT('Ctrl Pts',(255.688876581387,200.787389335363,1.6));
#1292=CARTESIAN_POINT('Ctrl Pts',(255.10101263313,200.461374093939,1.6));
#1293=CARTESIAN_POINT('Ctrl Pts',(254.452574412322,200.222218469344,1.6));
#1294=CARTESIAN_POINT('Ctrl Pts',(253.769549344914,200.090252522241,1.6));
#1295=CARTESIAN_POINT('Origin',(259.036499999637,255.447649563466,0.));
#1296=CARTESIAN_POINT('',(259.036499999637,255.447649563466,0.));
#1297=CARTESIAN_POINT('',(259.036499999927,206.472338843141,0.));
#1298=CARTESIAN_POINT('',(259.036499999637,255.447649563466,1.6));
#1299=CARTESIAN_POINT('',(259.036499999637,255.447649563466,0.));
#1300=CARTESIAN_POINT('',(259.036499999927,206.472338843141,1.6));
#1301=CARTESIAN_POINT('Ctrl Pts',(256.301308858408,260.746442871373,0.));
#1302=CARTESIAN_POINT('Ctrl Pts',(256.301308858408,260.746442871373,1.6));
#1303=CARTESIAN_POINT('Ctrl Pts',(258.014369196829,259.529287349341,0.));
#1304=CARTESIAN_POINT('Ctrl Pts',(258.014369196829,259.529287349341,1.6));
#1305=CARTESIAN_POINT('Ctrl Pts',(259.036530282223,257.549083646879,0.));
#1306=CARTESIAN_POINT('Ctrl Pts',(259.036530282223,257.549083646879,1.6));
#1307=CARTESIAN_POINT('Ctrl Pts',(259.036499999637,255.447649563466,0.));
#1308=CARTESIAN_POINT('Ctrl Pts',(259.036499999637,255.447649563466,1.6));
#1309=CARTESIAN_POINT('',(256.301308858408,260.746442871373,0.));
#1310=CARTESIAN_POINT('Ctrl Pts',(256.301308858408,260.746442871373,0.));
#1311=CARTESIAN_POINT('Ctrl Pts',(258.014369196829,259.529287349341,0.));
#1312=CARTESIAN_POINT('Ctrl Pts',(259.036530282223,257.549083646879,0.));
#1313=CARTESIAN_POINT('Ctrl Pts',(259.036499999637,255.447649563466,0.));
#1314=CARTESIAN_POINT('',(256.301308858408,260.746442871373,1.6));
#1315=CARTESIAN_POINT('',(256.301308858408,260.746442871373,0.));
#1316=CARTESIAN_POINT('Ctrl Pts',(256.301308858408,260.746442871373,1.6));
#1317=CARTESIAN_POINT('Ctrl Pts',(258.014369196829,259.529287349341,1.6));
#1318=CARTESIAN_POINT('Ctrl Pts',(259.036530282223,257.549083646879,1.6));
#1319=CARTESIAN_POINT('Ctrl Pts',(259.036499999637,255.447649563466,1.6));
#1320=CARTESIAN_POINT('Origin',(238.79318353782,273.186389808879,0.));
#1321=CARTESIAN_POINT('',(238.79318353782,273.186389808879,0.));
#1322=CARTESIAN_POINT('',(256.301308858408,260.746442871373,0.));
#1323=CARTESIAN_POINT('',(238.79318353782,273.186389808879,1.6));
#1324=CARTESIAN_POINT('',(238.79318353782,273.186389808879,0.));
#1325=CARTESIAN_POINT('',(256.301308858408,260.746442871373,1.6));
#1326=CARTESIAN_POINT('Ctrl Pts',(237.742119278707,273.794137398769,0.));
#1327=CARTESIAN_POINT('Ctrl Pts',(237.742119278707,273.794137398769,1.6));
#1328=CARTESIAN_POINT('Ctrl Pts',(237.742133524117,273.794130852884,0.));
#1329=CARTESIAN_POINT('Ctrl Pts',(237.742133524117,273.794130852884,1.6));
#1330=CARTESIAN_POINT('Ctrl Pts',(237.742147769791,273.794124306877,0.));
#1331=CARTESIAN_POINT('Ctrl Pts',(237.742147769791,273.794124306877,1.6));
#1332=CARTESIAN_POINT('Ctrl Pts',(237.742162015143,273.794117761018,0.));
#1333=CARTESIAN_POINT('Ctrl Pts',(237.742162015143,273.794117761018,1.6));
#1334=CARTESIAN_POINT('Ctrl Pts',(237.759524583381,273.786139515115,0.));
#1335=CARTESIAN_POINT('Ctrl Pts',(237.759524583381,273.786139515115,1.6));
#1336=CARTESIAN_POINT('Ctrl Pts',(237.817242077472,273.759182703739,0.));
#1337=CARTESIAN_POINT('Ctrl Pts',(237.817242077472,273.759182703739,1.6));
#1338=CARTESIAN_POINT('Ctrl Pts',(237.854526494139,273.741179656245,0.));
#1339=CARTESIAN_POINT('Ctrl Pts',(237.854526494139,273.741179656245,1.6));
#1340=CARTESIAN_POINT('Ctrl Pts',(238.182339076113,273.582893004338,0.));
#1341=CARTESIAN_POINT('Ctrl Pts',(238.182339076113,273.582893004338,1.6));
#1342=CARTESIAN_POINT('Ctrl Pts',(238.496335241804,273.397318873151,0.));
#1343=CARTESIAN_POINT('Ctrl Pts',(238.496335241804,273.397318873151,1.6));
#1344=CARTESIAN_POINT('Ctrl Pts',(238.793183537819,273.186389808879,0.));
#1345=CARTESIAN_POINT('Ctrl Pts',(238.793183537819,273.186389808879,1.6));
#1346=CARTESIAN_POINT('Ctrl Pts',(237.74211927999,273.79413739818,0.));
#1347=CARTESIAN_POINT('Ctrl Pts',(237.742133524973,273.79413085249,0.));
#1348=CARTESIAN_POINT('Ctrl Pts',(237.742147770219,273.79412430668,0.));
#1349=CARTESIAN_POINT('Ctrl Pts',(237.742162015143,273.794117761018,0.));
#1350=CARTESIAN_POINT('Ctrl Pts',(237.759524583381,273.786139515115,0.));
#1351=CARTESIAN_POINT('Ctrl Pts',(237.817242077472,273.759182703739,0.));
#1352=CARTESIAN_POINT('Ctrl Pts',(237.854526494139,273.741179656245,0.));
#1353=CARTESIAN_POINT('Ctrl Pts',(238.182339076113,273.582893004338,0.));
#1354=CARTESIAN_POINT('Ctrl Pts',(238.496335241804,273.397318873151,0.));
#1355=CARTESIAN_POINT('Ctrl Pts',(238.793183537819,273.186389808879,0.));
#1356=CARTESIAN_POINT('Ctrl Pts',(237.742119278707,273.794137398769,1.6));
#1357=CARTESIAN_POINT('Ctrl Pts',(237.742133524117,273.794130852884,1.6));
#1358=CARTESIAN_POINT('Ctrl Pts',(237.742147769791,273.794124306877,1.6));
#1359=CARTESIAN_POINT('Ctrl Pts',(237.742162015143,273.794117761018,1.6));
#1360=CARTESIAN_POINT('Ctrl Pts',(237.759524583381,273.786139515115,1.6));
#1361=CARTESIAN_POINT('Ctrl Pts',(237.817242077472,273.759182703739,1.6));
#1362=CARTESIAN_POINT('Ctrl Pts',(237.854526494139,273.741179656245,1.6));
#1363=CARTESIAN_POINT('Ctrl Pts',(238.182339076113,273.582893004338,1.6));
#1364=CARTESIAN_POINT('Ctrl Pts',(238.496335241804,273.397318873151,1.6));
#1365=CARTESIAN_POINT('Ctrl Pts',(238.793183537819,273.186389808879,1.6));
#1366=CARTESIAN_POINT('Origin',(199.036618823966,232.988864444324,1.6));
#1367=CARTESIAN_POINT('Origin',(199.036618823966,232.988864444324,0.));
#1368=UNCERTAINTY_MEASURE_WITH_UNIT(LENGTH_MEASURE(0.01),#1372,
'DISTANCE_ACCURACY_VALUE',
'Maximum model space distance between geometric entities at asserted c
onnectivities');
#1369=UNCERTAINTY_MEASURE_WITH_UNIT(LENGTH_MEASURE(0.01),#1372,
'DISTANCE_ACCURACY_VALUE',
'Maximum model space distance between geometric entities at asserted c
onnectivities');
#1370=(
GEOMETRIC_REPRESENTATION_CONTEXT(3)
GLOBAL_UNCERTAINTY_ASSIGNED_CONTEXT((#1368))
GLOBAL_UNIT_ASSIGNED_CONTEXT((#1372,#1374,#1375))
REPRESENTATION_CONTEXT('','3D')
);
#1371=(
GEOMETRIC_REPRESENTATION_CONTEXT(3)
GLOBAL_UNCERTAINTY_ASSIGNED_CONTEXT((#1369))
GLOBAL_UNIT_ASSIGNED_CONTEXT((#1372,#1374,#1375))
REPRESENTATION_CONTEXT('','3D')
);
#1372=(
LENGTH_UNIT()
NAMED_UNIT(*)
SI_UNIT(.MILLI.,.METRE.)
);
#1373=(
LENGTH_UNIT()
NAMED_UNIT(*)
SI_UNIT($,.METRE.)
);
#1374=(
NAMED_UNIT(*)
PLANE_ANGLE_UNIT()
SI_UNIT($,.RADIAN.)
);
#1375=(
NAMED_UNIT(*)
SI_UNIT($,.STERADIAN.)
SOLID_ANGLE_UNIT()
);
#1376=SHAPE_DEFINITION_REPRESENTATION(#1377,#1378);
#1377=PRODUCT_DEFINITION_SHAPE('',$,#1380);
#1378=SHAPE_REPRESENTATION('',(#704),#1370);
#1379=PRODUCT_DEFINITION_CONTEXT('part definition',#1384,'design');
#1380=PRODUCT_DEFINITION('2026-03-20-20-22-17-701','Untitled',#1381,#1379);
#1381=PRODUCT_DEFINITION_FORMATION('',$,#1386);
#1382=PRODUCT_RELATED_PRODUCT_CATEGORY('Untitled','Untitled',(#1386));
#1383=APPLICATION_PROTOCOL_DEFINITION('international standard',
'automotive_design',2009,#1384);
#1384=APPLICATION_CONTEXT(
'Core Data for Automotive Mechanical Design Process');
#1385=PRODUCT_CONTEXT('part definition',#1384,'mechanical');
#1386=PRODUCT('2026-03-20-20-22-17-701','Untitled',$,(#1385));
#1387=PRESENTATION_STYLE_ASSIGNMENT((#1388));
#1388=SURFACE_STYLE_USAGE(.BOTH.,#1389);
#1389=SURFACE_SIDE_STYLE('',(#1390));
#1390=SURFACE_STYLE_FILL_AREA(#1391);
#1391=FILL_AREA_STYLE('Steel - Satin',(#1392));
#1392=FILL_AREA_STYLE_COLOUR('Steel - Satin',#1393);
#1393=COLOUR_RGB('Steel - Satin',0.627450980392157,0.627450980392157,0.627450980392157);
ENDSEC;
END-ISO-10303-21;
